<svg width="676" height="332" viewBox="0 0 676 332" fill="none" xmlns="http://www.w3.org/2000/svg">
<path fill-rule="evenodd" clip-rule="evenodd" d="M673.885 204.794C671.664 212.696 669.112 220.526 667.4 228.537C666.778 231.442 668.155 234.78 668.637 237.918C671.114 254.062 667.691 268.545 657.35 281.469C650.848 289.596 643.071 292.3 633.328 289.061C629.328 287.731 625.466 287.802 621.345 288.272C613.779 289.135 606.478 289.212 600.619 282.452C598.661 280.194 594.188 280.444 591.723 278.173C578.413 295.752 560.585 305.355 539.165 308.396C530.163 309.672 521.324 307.989 513.029 304.178C510.613 303.069 508.602 303.168 506.623 304.696C503.284 307.274 500.067 310.01 496.694 312.542C495.16 313.693 496.189 314.803 496.37 315.963C497.499 323.217 492.754 330.424 486.02 331.687C478.681 333.064 471.33 328.119 469.919 320.856C468.649 314.315 473.669 306.429 480.74 304.264C482.407 303.755 483.207 303.13 483.804 301.457C485.388 297.017 487.245 292.673 489.095 288.334C489.937 286.359 489.572 284.812 488.47 282.977C476.621 263.231 476.399 243.347 488.169 223.481C489.194 221.751 489.293 220.861 487.63 219.508C481.756 214.722 476.353 209.425 472.069 203.128C470.93 201.454 470.238 201.918 468.773 202.622C450.497 211.383 434.922 224.521 417.351 234.419C412.462 237.172 407.652 240.076 402.445 242.186C398.71 243.7 395.675 245.955 392.834 248.883C381.987 260.062 369.464 268.693 354.23 272.802C348.308 274.398 342.567 274.524 337.804 269.732C335.772 267.687 334.077 265.407 334.523 262.307C334.774 260.567 334.027 260.268 332.532 259.958C328.469 259.117 323.804 257.893 322.308 254.008C320.458 249.204 317.629 245.598 314.346 241.859C311.61 238.744 313.022 234.83 315.083 231.489C317.616 227.38 321.22 224.297 324.921 221.329C330.112 217.167 335.501 213.263 341.3 209.997C343.16 208.95 343.454 208.086 342.473 206.147C340.866 202.969 339.664 199.61 338.98 196.054C337.729 189.55 339.12 185.404 343.591 183.139C348.437 180.685 354.85 181.885 358.729 185.998C360.855 188.251 362.433 190.898 363.867 193.611C365.203 196.137 366.3 196.441 368.997 194.739C394.153 178.863 418.455 161.641 444.162 146.64C454.203 140.78 464.812 136.105 475.922 132.677C478.094 132.007 478.55 131.503 477.583 129.342C476.661 127.28 476.099 124.953 475.885 122.694C475.01 113.509 478.358 107.862 486.747 104.052C490.486 102.355 494.441 101.395 498.505 100.868C500.153 100.654 501.823 100.531 503.439 100.164C504.735 99.8687 505.919 98.9694 505.728 97.549C505.53 96.0731 504.368 95.8814 502.848 96.0076C499.416 96.2917 495.948 96.3448 492.502 96.2455C483.021 95.973 475.446 92.3152 470.931 83.5337C469.968 81.6606 468.548 80.3871 466.809 79.1892C460.153 74.6068 454.114 69.2413 448.411 63.531C440.11 55.2199 441.721 44.108 447.661 34.1725C453.691 24.0845 463.57 18.8469 473.993 14.6894C491.382 7.75493 509.562 4.68073 528.232 4.79313C535.392 4.83625 542.434 6.12506 549.046 9.19849C563.725 16.0213 569.521 29.5146 565.131 45.9473C563.88 50.6275 561.566 54.9597 560.57 59.7431C559.289 65.8823 560.252 67.8878 566.055 69.8927C573.332 72.4064 578.983 76.5446 580.974 84.436C582.894 92.0488 580.089 98.1187 573.099 101.636C571.9 102.238 570.248 102.375 570.912 104.43C571.582 106.503 571.563 109.438 574.213 109.75C580.055 110.436 585.858 111.112 591.453 113.043C591.998 113.232 592.725 113.09 593.314 112.918C597.373 111.737 601.436 111.909 605.386 113.189C617.35 117.064 629.777 119.72 640.533 126.784C648.279 131.869 655.698 137.685 657.918 146.939C659.86 155.037 663.522 162.192 666.7 169.668C670.16 177.812 672.77 186.214 673.164 195.159C673.187 195.691 673.285 196.157 673.883 196.323C673.885 199.147 673.885 201.971 673.885 204.794ZM582.697 196.154C582.47 196.031 582.245 195.909 582.019 195.786C581.841 196.221 582.146 196.305 582.454 196.386C590.036 208.521 595.466 221.258 593.384 236.215C596.811 235.981 597.585 233.635 597.965 231.023C598.605 226.64 597.683 222.347 597.02 218.06C595.558 208.605 591.286 200.948 582.697 196.154ZM486.323 248.261C486.113 266.55 491.746 277.012 499.975 286.159C509.497 296.743 521.287 303.156 535.853 301.727C553.702 299.976 569.123 292.504 581.805 279.649C583.33 278.102 584.448 276.202 585.251 274.16C587.026 269.651 586.818 269.374 581.934 269.483C580.911 269.505 579.888 269.526 578.866 269.493C569.732 269.206 565.091 261.008 569.473 252.961C572.205 247.942 576.324 244.317 581.299 241.815C584.543 240.182 586.058 237.707 586.417 234.379C588.255 217.378 581.603 203.933 568.744 193.364C564.44 189.827 559.441 187.703 553.496 189.331C550.941 190.031 548.144 189.811 545.549 190.408C542.936 191.011 540.125 190.125 537.677 191.504C527.674 197.14 517.408 202.354 508.739 210.101C495.67 221.782 486.737 235.571 486.323 248.261ZM466.657 31.7596C466.366 32.4371 466.053 32.8829 465.989 33.3625C464.029 47.8813 468.234 61.209 473.869 74.2618C474.376 75.4367 475.176 75.7439 476.315 75.2958C483.633 72.4141 491.497 70.5063 496.56 63.6519C498.007 61.6925 499.961 61.3468 501.918 62.778C504.206 64.4518 503.255 66.2988 501.869 68.0549C498.279 72.6012 493.571 75.5845 488.314 77.7903C485.013 79.1761 481.693 80.5165 478.271 81.9223C480.846 85.7341 484.013 87.8367 488.108 88.699C494.367 90.0178 500.557 89.5489 506.721 88.2101C512.043 87.0537 513.525 88.4588 512.458 93.825C523.52 90.4505 534.575 87.0568 545.648 83.7231C547.221 83.2496 547.912 82.7246 547.441 80.8252C546.079 75.3305 546.892 70.1152 549.356 64.9361C551.111 61.2467 551.739 57.1085 551.205 52.9326C550.876 50.3503 549.91 47.6511 547.022 47.9244C544.022 48.2085 543.22 51.044 543.468 53.8203C543.876 58.3819 544.403 62.9343 544.961 67.4813C545.231 69.6786 544.317 71.0906 542.24 71.3586C535.059 72.2824 527.933 72.1261 522.757 66.1471C516.997 59.4944 514.803 51.3874 516.855 42.8946C517.711 39.3531 516.738 39.2753 514.265 39.2792C507.103 39.2907 499.938 39.213 492.781 39.4378C483.254 39.7365 474.177 38.7202 466.657 31.7596ZM348.46 266.996C350.262 266.412 352.302 266.557 354.285 265.884C367.2 261.5 378.015 253.861 387.776 244.528C388.886 243.465 389.472 242.512 388.613 240.868C386.545 236.912 385.726 232.511 384.475 228.262C382.365 221.1 380.735 213.711 375.902 207.703C374.137 205.508 371.821 202.692 369.142 203.422C363.718 204.899 361.491 201.792 359.059 198.2C357.211 195.469 355.895 192.385 353.41 190.066C351.343 188.137 348.966 187.955 346.721 189.044C344.424 190.158 345.002 192.641 345.421 194.557C346.37 198.906 348.006 203.077 350.257 206.895C352.299 210.361 351.113 212.172 347.971 213.861C343.396 216.318 338.867 218.893 334.51 221.718C329.134 225.205 324.158 229.235 320.905 234.937C319.078 238.139 320.026 240.122 323.738 240.361C330.664 240.806 337.319 239.899 342.71 234.855C344.072 233.581 345.679 233.253 347.158 234.278C348.838 235.444 348.486 237.11 347.601 238.721C346.374 240.959 344.419 242.296 342.2 243.383C338.294 245.296 334.079 246.175 329.865 246.935C328.396 247.201 327.4 247.658 327.163 249.033C326.868 250.743 328.181 251.409 329.492 252.064C331.438 253.038 333.523 252.656 335.514 252.697C342.127 252.839 348.732 252.833 354.118 247.897C355.624 246.517 357.526 246.771 358.904 248.312C360.375 249.957 359.915 251.436 358.348 252.951C354.302 256.864 349.194 258.388 343.933 259.268C341.821 259.622 342.216 261.184 341.548 262.181C340.764 263.35 341.631 264.29 342.582 265.095C344.254 266.507 346.26 266.772 348.46 266.996ZM555.013 180.994C560.443 181.494 565.609 179.43 570.978 179.331C572.096 179.31 572.426 178.595 572.554 177.565C573.871 166.918 576.301 156.408 574.935 145.499C572.813 128.538 561.314 119.402 545.257 122.39C529.523 125.318 518.626 142.387 522.526 157.688C525.807 170.567 540.375 181.506 555.013 180.994ZM640.617 283.934C647.007 283.863 650.442 279.374 653.706 275.149C663.039 263.067 663.869 249.189 661.503 234.753C661.036 231.903 659.455 232.337 657.331 232.947C647.894 235.66 638.174 236.725 628.457 237.94C619.748 239.029 610.885 238.724 602.302 240.906C593.022 243.264 584.044 246.226 577.236 253.494C575.41 255.442 573.394 257.581 574.775 260.52C576.133 263.41 578.956 262.843 581.511 262.756C587.968 262.537 593.796 259.954 599.73 257.843C601.76 257.12 603.561 256.56 604.513 258.937C605.45 261.276 604.128 262.847 601.98 263.72C600.108 264.479 598.197 265.139 596.304 265.846C592.642 267.211 592.141 269.856 595.118 272.537C596.757 274.012 598.735 274.724 600.973 274.952C613.145 276.191 622.749 271.528 630.328 262.212C631.894 260.288 633.541 259.25 635.782 260.978C637.961 262.654 636.758 264.211 635.572 265.89C630.999 272.37 624.645 276.393 617.509 279.418C615.926 280.089 614.042 280.194 612.389 281.83C622.968 282.112 632.578 280.479 641.303 275.019C643.744 273.492 645.313 271.346 645.469 268.513C645.595 266.219 646.148 264.681 648.728 264.928C651.376 265.181 652.006 267.19 651.849 269.341C651.463 274.686 648.004 277.99 643.913 280.852C642.756 281.663 640.924 281.79 640.617 283.934ZM605.181 120.399C615.353 130.123 619.167 140.986 617.448 153.765C616.123 163.612 610.918 171.693 605.158 179.394C602.48 182.974 600.614 185.655 603.862 190.412C606.127 193.729 606.898 195.228 611.58 194.384C626.609 191.676 638.459 184.252 647.453 172.253C655.75 161.184 654.644 149.278 645.081 139.294C634.375 128.12 619.899 125.098 605.181 120.399ZM556.793 47.9852C563.84 30.9389 557.475 18.1801 539.895 13.7016C529.539 11.064 519.143 11.4535 508.703 13.0149C496.421 14.8519 484.423 17.6797 472.971 22.6548C470.204 23.8566 470.226 25.0276 471.953 27.0501C474.143 29.6139 476.972 30.9435 480.162 31.6133C487.138 33.0769 494.169 32.4648 501.176 31.9867C506.799 31.6025 512.405 31.166 517.971 32.4356C522.92 33.565 526.455 38.45 524.059 43.4667C522.315 47.1168 523.115 51.0409 524.184 54.7542C525.623 59.7539 528.691 63.33 533.92 64.6204C536.364 65.224 537.931 64.6474 537.521 61.6193C537.177 59.0825 537.006 56.5218 536.735 53.9742C536.149 48.4741 539.515 42.977 544.576 41.1947C549.018 39.6303 552.338 41.2501 555.883 46.7026C556.15 47.1183 556.454 47.5102 556.793 47.9852ZM564.469 116.345C578.9 129.427 582.453 138.038 581.82 157.382C581.619 163.542 580.702 169.608 579.663 175.651C579.256 178.019 579.636 178.887 582.183 178.663C586.04 178.324 589.855 178.954 593.434 180.37C595.001 180.99 595.723 180.603 596.583 179.448C600.625 174.014 604.779 168.628 607.66 162.468C614.318 148.227 610.61 132.62 598.679 124.543C588.436 117.609 576.796 116.436 564.469 116.345ZM658.172 167.707C657.708 168.233 657.388 168.476 657.222 168.798C648.301 186.114 634.546 196.948 615.238 200.4C613.245 200.757 611.297 201.382 609.346 201.946C608.047 202.321 607.529 203.234 607.883 204.573C609.031 208.914 609.433 213.373 609.879 217.818C610.036 219.381 610.688 219.994 612.22 220.218C617.837 221.036 623.414 220.855 628.976 219.841C641.661 217.53 652.99 211.713 664.399 206.084C666.125 205.232 666.176 203.884 666.283 202.308C667.113 189.99 663.168 178.844 658.172 167.707ZM375.389 198.354C382.487 203.478 385.786 210.338 388.189 217.718C390.124 223.658 391.865 229.661 393.654 235.647C394.144 237.286 394.462 238.269 396.718 237.299C404.954 233.755 412.528 229.04 420.237 224.548C421.831 223.619 422.19 222.323 421.841 220.646C420.201 212.773 418.751 204.844 415.788 197.325C413.504 191.53 410.412 186.282 405.019 182.766C403.673 181.888 402.551 181.449 400.888 182.508C392.604 187.787 384.212 192.895 375.389 198.354ZM429.058 218.925C435.448 214.681 441.597 210.594 447.754 206.519C448.506 206.021 448.933 205.529 449.174 204.498C450.748 197.734 451.809 190.92 451.211 183.972C450.414 174.709 447.915 166.133 440.575 159.722C439.495 158.778 438.471 157.818 436.899 158.851C427.659 164.923 418.409 170.977 408.986 177.151C423.035 187.66 424.981 203.435 429.058 218.925ZM508.791 109.724C508.987 113.588 509.961 117.248 511.566 120.779C512.538 122.916 513.329 123.734 515.632 121.877C520.248 118.155 525.632 115.883 531.436 114.551C535.316 113.662 539.733 114.335 543.056 112.882C548.063 110.694 553.069 110.488 558.177 110.051C564.843 109.48 564.845 109.571 564.234 102.734C564.142 101.714 564.171 100.683 564.078 99.6631C563.442 92.6532 560.015 89.5743 553.049 89.8184C550.887 89.8939 548.747 90.1279 546.636 90.7608C537.753 93.4254 528.829 95.9545 519.96 98.6676C517.792 99.3305 515.791 100.53 513.694 101.438C510.054 103.015 508.607 105.869 508.791 109.724ZM527.005 189.546C519.103 187.133 513.002 182.932 508.467 176.624C507.602 175.42 506.976 175.861 505.963 176.293C495.915 180.575 485.68 184.345 475.119 187.149C473.085 187.689 472.531 188.251 473.364 190.454C477.22 200.658 484.787 207.822 492.653 214.788C493.54 215.573 494.07 215.35 494.776 214.511C503.589 204.031 514.409 196.105 527.005 189.546ZM471.927 181.072C482.205 177.947 491.922 174.57 501.516 170.838C502.811 170.334 504.342 169.845 503.427 167.573C498.226 154.639 498.893 142.185 507.583 129.663C498.484 132.96 490.319 136.134 481.784 138.098C479.996 138.51 480.005 140.118 479.874 141.462C479.297 147.348 477.534 152.949 476.019 158.624C474.121 165.75 471.698 172.803 471.927 181.072ZM445.05 154.126C458.316 166.938 459.414 182.955 457.421 200.122C459.747 198.461 461.926 197.791 464.111 197.113C466.57 196.35 467.66 194.984 466.432 192.282C465.26 189.7 465.072 186.883 464.944 184.051C464.507 174.278 467.628 165.167 469.964 155.903C471.164 151.145 472.71 146.441 472.753 141.146C462.854 144.559 453.893 149.015 445.05 154.126ZM534.648 183.131C510.147 166.286 508.793 146.505 526.589 123.826C512.417 129.544 504.885 142.874 507.539 156.689C510.718 173.254 520.447 182.888 534.648 183.131ZM482.696 121.082C482.578 122.943 483.294 124.972 483.954 127.049C484.804 129.731 486.202 130.194 488.738 129.112C492.58 127.474 496.467 125.797 500.498 124.794C504.162 123.882 505.727 122.758 503.555 118.949C502.705 117.455 502.752 115.473 502.1 113.829C501.307 111.83 503.377 108.776 500.647 107.826C498.449 107.061 495.911 108.295 493.59 108.941C492.135 109.346 490.725 109.945 489.341 110.563C484.971 112.517 482.603 115.821 482.696 121.082ZM662.872 214.649C646.487 222.443 630.073 229.837 611.255 227.208C612.501 232.777 612.87 233.024 618.145 232.217C619.53 232.005 620.932 231.905 622.327 231.762C633.105 230.657 643.901 229.651 654.407 226.8C661.521 224.87 662.993 222.767 662.872 214.649ZM463.845 67.7423C459.687 55.8235 457.533 44.4306 459.103 32.0676C445.203 43.3135 446.834 55.3577 463.845 67.7423ZM553.487 73.9162C553.668 75.0518 554.031 76.1927 553.997 77.3222C553.89 80.8399 554.89 82.8223 558.918 83.5183C563.298 84.2759 566.604 87.2885 568.855 91.3243C569.484 92.4522 569.077 94.6942 570.855 94.5664C572.558 94.444 573.361 92.5754 574.104 91.0733C575.523 88.2055 574.729 85.5863 573.098 83.1188C570.713 79.5102 567.001 77.7887 563.168 76.2844C560.789 75.3505 558.385 74.5059 556.5 72.6512C555.907 72.0676 555.493 70.7011 554.537 71.2346C553.782 71.6573 553.277 72.8044 553.487 73.9162ZM483.061 325.009C487.108 325.029 489.802 322.417 489.857 318.418C489.888 316.212 484.399 311.113 481.894 311.022C479.774 310.944 476.493 315.571 476.517 318.605C476.546 322.299 479.295 324.989 483.061 325.009ZM600.705 205.231C600.713 190.302 590.483 183.96 580.03 185.965C584.237 188.447 588.216 190.881 591.804 193.906C595.414 196.951 597.949 200.859 600.705 205.231ZM495.194 292.115C493.712 295.396 492.148 298.665 490.762 302.009C490.009 303.825 488.402 306.325 490.057 307.61C491.816 308.976 493.591 306.499 495.148 305.381C504.395 298.741 504.377 298.716 495.719 292.293C495.621 292.22 495.48 292.209 495.194 292.115Z" fill="#111012"/>
<path fill-rule="evenodd" clip-rule="evenodd" d="M74.2596 0C75.8036 1.56212 77.8497 0.59898 79.6393 1.04552C87.8084 3.08344 94.3137 7.41643 99.0185 14.4379C99.7303 15.4996 100.452 16.5582 101.219 17.5799C104.371 21.7781 105.907 22.2632 111.077 20.9189C118.698 18.938 125.757 15.043 133.751 14.3163C137.671 13.9598 141.403 14.5334 144.883 16.3311C149.348 18.6362 150.948 22.5041 148.629 26.8956C143.975 35.7071 136.821 41.9687 127.384 45.1661C124.371 46.187 123.716 47.0647 124.863 50.0711C129.223 61.498 134.531 72.5837 137.438 84.5433C137.8 86.0323 138.317 87.5052 138.483 89.0165C138.896 92.782 138.803 96.6084 143.931 97.5385C145.578 97.8372 146.784 99.8058 147.194 101.58C147.887 104.579 149.66 104.321 151.912 103.681C158.773 101.734 165.618 99.2707 172.766 99.1422C179.649 99.0182 186.225 97.4853 192.937 96.4968C197.595 95.8108 202.378 96.1935 207.11 96.5314C210.689 96.787 213.946 97.4615 217.869 95.8178C222.722 93.7837 228.459 95.3989 233.56 97.3044C243.141 100.884 250.687 106.915 255.102 116.336C255.999 118.249 257.773 118.979 258.951 120.463C263.684 126.426 265.507 133.395 266.102 140.767C266.537 146.16 266.098 151.535 264.58 156.748C264.121 158.326 264.212 159.506 265.022 160.998C275.321 179.952 275.188 198.821 264.308 217.523C262.959 219.843 261.51 222.103 260.124 224.402C258.68 226.793 257.55 229.026 258.329 232.194C259.163 235.588 257.563 238.691 254.861 241.045C254.049 241.754 253.211 242.129 253.89 243.759C257.021 251.285 254.335 257.167 246.601 260.127C245.469 260.561 244.686 260.687 244.526 262.273C243.34 274.035 237.544 278.072 226.003 275.309C220.359 273.957 215.191 271.41 210.376 268.281C202.961 263.464 194.709 260.368 186.849 256.489C180.28 253.247 172.679 253.591 165.664 251.751C164.063 251.332 162.382 251.157 160.838 250.595C153.293 247.849 145.801 247.054 137.803 249.089C133.317 250.23 128.375 249.978 123.665 249.757C107.102 248.979 90.7581 251.351 74.3548 252.879C67.1662 253.548 60.0198 253.331 53.0332 251.556C44.3935 249.36 38.5915 243.755 35.2056 235.553C32.8601 229.873 31.5065 223.884 29.8773 217.99C28.5721 213.267 26.3479 208.99 24.2412 204.641C23.931 203.999 23.2745 203.472 22.6749 203.035C4.84048 190.04 -0.792624 172.54 3.77405 151.344C5.47389 143.451 7.81557 135.753 12.3776 128.96C14.6118 125.633 17.8326 123.355 20.8645 120.792C23.792 118.319 22.3801 113.421 24.8216 110.126C28.0846 105.724 32.2958 102.815 37.3239 101.035C39.0053 100.439 39.8092 100.245 39.1151 98.0097C37.3362 92.2793 38.6276 87.1063 43.3117 83.1321C44.5271 82.1012 44.3351 81.406 43.6349 80.2758C41.2219 76.377 39.8276 71.9232 34.4064 70.4003C30.4877 69.2994 28.7426 65.1919 28.3049 61.277C26.4953 45.0753 29.8251 29.7905 38.9163 16.3704C45.4031 6.79435 55.8002 2.72313 66.962 0.796073C67.6607 0.675199 68.5474 1.00395 68.8837 0C70.6764 0 72.4684 0 74.2596 0ZM73.316 7.49804C57.315 7.56502 45.0438 15.1547 40.1785 27.4561C36.5131 36.7242 34.5853 46.3679 34.1799 56.4228C33.9081 63.1648 39.0176 66.9004 45.5682 65.1011C73.2485 57.4991 100.232 47.8107 127.206 38.0777C133.381 35.8503 137.632 31.3072 141.565 26.4368C143.689 23.806 142.751 21.9968 139.39 21.4925C135.028 20.8381 130.832 21.4709 126.634 22.8652C121.843 24.4551 117.251 26.5523 112.333 27.858C106.141 29.5025 101.363 27.771 97.3548 23.1324C96.0219 21.5895 94.8089 19.9327 93.6373 18.2597C88.2997 10.6392 81.0482 6.97759 73.316 7.49804ZM126.913 121.556C125.924 121.933 125.587 122.021 125.288 122.181C122.918 123.45 120.458 124.608 118.736 121.415C116.939 118.079 119.935 117.276 121.9 116.045C127.501 112.537 131.026 107.706 132.158 101.046C133.158 95.1687 132.018 89.5777 130.567 83.9929C127.662 72.8093 122.197 62.6028 118.297 51.8034C117.288 49.0087 116.22 49.1026 113.886 49.9356C102.248 54.0885 90.5984 58.2244 78.8401 62.013C74.9967 63.251 72.7256 63.9108 73.2208 69.2239C74.0838 78.4727 62.502 90.1867 53.1691 90.8142C51.9122 90.8981 50.7099 90.8727 49.4738 90.1944C46.5217 88.5745 45.3194 89.2975 45.0899 92.5649C44.8334 96.2135 46.4795 98.1043 50.2638 97.848C56.7691 97.4068 63.2529 96.7824 69.7912 97.035C88.4118 97.7548 96.6323 104.257 101.03 122.103C102.057 126.27 104.711 128.515 108.609 129.237C111.869 129.84 115.223 129.822 118.461 128.681C121.931 127.459 125.607 126.524 126.913 121.556ZM210.261 187.503C210.56 187.085 210.808 186.614 211.167 186.256C214.92 182.517 218.198 181.746 222.158 183.644C225.931 185.452 227.766 188.969 227.121 193.897C226.776 196.537 226.161 199.204 225.22 201.687C224.333 204.029 224.944 205.083 227.08 206.132C235.577 210.311 243.693 215.166 251.094 221.098C252.912 222.555 253.432 222.053 254.306 220.355C256.354 216.379 258.607 212.511 260.684 208.549C270.263 190.28 266.209 161.389 241.916 148.841C230.265 142.823 226.671 143.446 216.262 154.584C214.527 156.44 213.446 158.827 212.423 161.191C208.803 169.557 208.878 178.299 210.261 187.503ZM106.045 163.426C97.7786 159.053 89.8898 154.61 81.7645 150.652C72.6696 146.222 68.4883 146.776 62.6924 154.111C50.9902 168.92 42.6476 185.041 49.3487 204.956C49.8554 206.461 50.3445 207.374 51.8585 207.771C61.4563 210.292 71.0511 212.824 80.6328 215.407C82.4317 215.892 83.0398 215.358 82.586 213.591C81.5941 209.722 82.2613 205.91 83.264 202.209C87.2955 187.332 94.8158 174.468 106.045 163.426ZM64.4859 142.401C59.8732 138.381 54.1741 135.864 47.7471 134.625C41.01 133.327 34.011 132.313 27.9986 129.011C23.9118 126.768 22.05 128.354 19.8449 131.041C15.4357 136.414 13.5646 142.96 11.6222 149.422C7.94533 161.656 8.30771 173.655 14.5174 185.092C19.3052 193.911 33.7722 203.714 41.489 203.905C36.3987 178.606 47.5621 159.624 64.4859 142.401ZM245.611 236.538C247.581 236.497 249.934 237.244 251.051 234.886C252.143 232.58 250.638 230.739 249.293 229.063C248.338 227.872 247.231 226.774 246.063 225.791C238.324 219.269 229.557 214.364 220.374 210.334C217.056 208.878 216.428 207.274 217.437 204.275C218.687 200.56 220.136 196.912 220.506 192.937C220.633 191.568 220.754 190.225 219.496 189.558C218.005 188.769 216.845 189.798 215.853 190.884C213.84 193.087 212.864 195.872 211.515 198.461C210.17 201.04 210.454 204.325 208.265 206.448C204.909 209.703 203.54 213.862 202.419 218.19C200.732 224.7 199.491 231.346 196.097 237.304C194.467 240.165 193.051 243.128 192.265 246.393C191.451 249.767 192.315 251.918 195.612 253.423C204.147 257.321 212.567 261.459 220.638 266.296C223.89 268.245 227.46 269.552 231.425 269.555C235.235 269.558 236.949 267.22 237.77 264.088C238.613 260.876 236.156 259.715 233.778 258.586C230.452 257.005 227.149 255.365 223.9 253.629C222.296 252.772 221.518 251.482 222.511 249.555C223.48 247.676 224.994 247.439 226.673 248.096C228.191 248.69 229.602 249.574 231.028 250.386C234.701 252.478 238.42 254.471 242.833 254.094C245.595 253.859 247.663 252.319 248.526 249.737C249.391 247.15 247.366 245.729 245.541 244.535C244.085 243.583 242.531 242.817 240.777 242.344C237.612 241.493 234.522 240.342 231.437 239.215C229.271 238.424 227.898 236.879 228.865 234.507C229.78 232.265 231.468 232.406 233.623 233.225C237.491 234.694 241.246 236.779 245.611 236.538ZM165.803 179.306C165.27 176.632 165.004 174.237 164.808 171.834C163.692 158.194 163.291 144.47 160.29 131.039C159.647 128.16 158.943 125.293 156.937 123.001C153.626 119.217 149.309 119.247 146.13 122.973C142.768 126.915 138.757 130.08 134.127 132.365C120.267 139.205 105.473 140.232 90.4257 138.898C80.4808 138.017 74.4853 132.264 72.1874 122.546C71.425 119.32 70.5505 116.122 69.058 113.126C66.9635 108.921 63.5155 106.315 59.0456 105.554C50.6201 104.119 42.5486 105.796 34.9385 109.527C32.1154 110.91 30.0716 113.218 29.2608 116.427C28.252 120.42 29.7276 123.118 33.7077 124.169C36.7803 124.981 39.8821 125.709 43.0031 126.304C53.3718 128.281 63.4403 130.875 71.1049 138.914C71.607 139.442 72.3663 140.054 73.0112 140.059C79.6524 140.118 84.7143 144.002 90.1401 147.013C93.9482 149.126 97.7709 151.213 101.72 153.385C102.275 150.872 101.606 149.052 101.017 147.234C99.3633 142.124 101.088 140.041 106.335 141.106C110.258 141.902 114.2 141.919 118.157 141.909C128.944 141.88 139.395 139.202 150.015 137.852C154.449 137.288 155.538 138.292 155.581 142.796C155.662 151.13 155.81 159.457 156.29 167.784C156.876 177.952 154.951 175.481 164.864 179.3C164.977 179.343 165.12 179.306 165.803 179.306ZM34.2429 209.373C37.3085 217.59 38.8141 225.768 41.8338 233.5C44.2791 239.762 48.5333 243.408 55.037 244.949C63.9416 247.059 72.8055 246.133 81.697 245.211C93.2503 244.013 104.766 242.387 116.435 242.714C122.449 242.882 128.478 242.977 135.498 242.278C125.672 238.137 116.891 234.219 107.843 230.91C83.9442 222.166 58.7868 217.773 34.2429 209.373ZM154.612 227.42C154.809 232.364 157.173 236.904 157.983 241.805C158.137 242.738 158.993 242.935 159.693 243.112C167.338 245.047 175.02 246.814 182.833 247.94C183.858 248.087 184.842 248.296 185.268 246.897C187.968 238.023 193.119 230.057 194.78 220.777C195.657 215.877 197.232 211.135 199.635 206.756C200.363 205.429 200.354 204.797 199.022 204.112C190.542 199.749 182.076 195.362 173.615 190.965C172.498 190.384 171.883 190.27 170.915 191.577C166.265 197.851 161.963 204.327 158.986 211.57C156.91 216.621 154.713 221.686 154.612 227.42ZM118.769 227.198C115.313 206.01 124.135 190.183 139.987 177.014C131.725 173.723 123.459 170.45 115.212 167.127C113.773 166.547 112.79 167.212 111.757 168.003C107.75 171.075 104.493 174.842 101.756 179.052C96.0304 187.858 90.7674 196.89 89.1696 207.529C88.4165 212.547 90.2944 217.69 93.6465 218.865C101.899 221.756 110.242 224.389 118.769 227.198ZM165.672 187.248C160.905 185.369 156.276 183.682 151.772 181.709C149.534 180.729 147.687 180.958 145.671 182.13C134.712 188.504 128.863 198.478 125.655 210.373C123.978 216.593 125.282 222.52 127.222 228.399C127.665 229.738 128.223 231.191 129.524 231.82C136.182 235.037 142.975 237.93 150.325 240.236C146.632 227.839 146.623 224.626 150.295 214.835C153.994 204.976 158.947 195.801 165.672 187.248ZM196.807 130.663C196.72 129.47 196.502 127.172 196.393 124.868C195.804 112.381 188.563 105.413 176.019 105.495C167.354 105.552 159.35 108.841 151.11 110.954C150.48 111.116 149.868 111.477 150.038 112.248C150.192 112.943 150.784 113.147 151.496 113.19C161.078 113.768 165.003 120.192 167.124 128.458C169.27 136.815 169.61 145.399 170.178 153.944C170.344 156.443 170.94 156.849 173.036 155.482C178.699 151.787 184.33 148.027 190.157 144.607C195.187 141.654 196.976 137.278 196.807 130.663ZM193.628 103.879C205.406 113.626 203.221 126.39 203.538 138.576C205.857 138.067 208.066 137.485 210.31 137.117C212.696 136.726 215.11 136.373 217.522 136.29C227.511 135.945 227.514 135.985 228.034 125.889C228.093 124.739 228.186 123.586 228.154 122.437C227.865 112.183 223.689 107.081 213.721 104.593C207.396 103.014 201.019 104.063 193.628 103.879ZM217.909 143.077C211.747 143.822 206.639 145.772 201.214 145.552C200.701 145.531 200.15 146.131 199.638 146.475C196.246 148.745 192.899 151.088 189.461 153.285C183.976 156.787 178.513 160.336 172.878 163.58C170.174 165.137 171.556 167.228 171.777 168.971C172.07 171.269 173.857 169.513 174.772 169.4C183.378 168.335 190.313 171.012 195.594 178.027C199.701 183.484 202.701 189.266 201.748 196.373C201.555 197.812 202.389 198.376 203.363 198.43C205.042 198.525 204.135 197.183 204.051 196.521C203.775 194.369 203.243 192.248 202.982 190.094C200.843 172.458 202.843 156.082 217.909 143.077ZM108.526 148.384C108.657 150.934 108.907 152.97 108.826 154.993C108.746 157.01 109.697 157.968 111.429 158.649C123.282 163.303 135.143 167.943 146.934 172.751C149.161 173.659 149.625 173.146 149.554 171.015C149.282 162.822 149.041 154.628 148.831 146.433C148.799 145.179 148.615 144.599 147.092 144.877C134.449 147.189 121.79 149.4 108.526 148.384ZM226.44 103.151C230.651 106.596 233.16 110.25 234.488 114.6C236.224 120.291 235.536 126.022 234.294 131.687C232.997 137.597 232.928 137.566 238.349 139.664C240.009 140.306 241.676 140.959 243.25 141.78C244.232 142.292 244.897 142.357 245.364 141.274C247.328 136.722 249.831 132.312 250.099 127.229C250.678 116.289 239.425 104.424 226.44 103.151ZM98.9318 132.858C97.6166 130.606 96.134 128.676 95.3148 126.497C94.4281 124.138 93.8415 121.565 93.678 119.05C92.9923 108.51 79.3898 104.037 71.8104 105.162C75.5065 110.297 76.7172 116.347 78.7825 122.049C80.8624 127.792 84.365 131.734 90.719 132.376C93.3463 132.641 95.9958 132.692 98.9318 132.858ZM194.924 194.116C194.755 188.808 192.513 184.826 189.429 181.188C185.453 176.496 180.316 175.486 174.58 176.584C173.626 176.766 171.858 176.813 172.61 178.555C173.483 180.576 174.035 183.035 176.085 184.168C182.173 187.533 188.38 190.682 194.924 194.116ZM66.6572 69.0391C66.6073 67.4339 66.476 65.8795 63.6184 66.8218C58.9181 68.3724 54.0919 69.5349 49.3425 70.9392C48.2661 71.258 46.5586 71.3388 47.7456 73.3706C49.4162 76.2315 50.984 79.1548 52.5587 82.072C53.0347 82.9535 53.5752 83.3731 54.6701 83.2107C59.1369 82.5478 66.7071 73.9003 66.6572 69.0391ZM133.51 121.472C133.478 122.275 132.915 123.382 133.818 123.888C134.898 124.494 135.699 123.522 136.472 122.884C138.145 121.502 139.772 120.094 141.139 118.365C143.971 114.78 144.097 107.998 141.173 104.49C140.58 103.779 139.263 102.022 138.742 103.998C137.19 109.889 132.411 114.79 133.51 121.472ZM258.249 152.232C260.499 146.618 259.585 134.842 256.53 131.034C255.64 133.599 254.525 136.043 253.972 138.608C253.362 141.44 250.318 144.093 251.36 146.51C252.388 148.897 255.609 150.334 257.875 152.178C257.959 152.246 258.123 152.216 258.249 152.232Z" fill="#121113"/>
<path fill-rule="evenodd" clip-rule="evenodd" d="M486.323 248.261C486.737 235.571 495.67 221.781 508.74 210.101C517.409 202.353 527.674 197.139 537.678 191.504C540.125 190.125 542.937 191.01 545.549 190.407C548.144 189.809 550.941 190.029 553.497 189.33C559.441 187.703 564.44 189.826 568.744 193.364C581.603 203.933 588.254 217.378 586.418 234.379C586.058 237.706 584.543 240.181 581.299 241.814C576.325 244.316 572.205 247.942 569.473 252.96C565.091 261.007 569.733 269.205 578.866 269.493C579.888 269.525 580.911 269.505 581.934 269.482C586.818 269.374 587.026 269.65 585.251 274.159C584.448 276.201 583.33 278.102 581.805 279.649C569.124 292.503 553.702 299.975 535.853 301.726C521.287 303.155 509.498 296.743 499.975 286.159C491.746 277.011 486.114 266.549 486.323 248.261ZM513.609 248.471C524.813 248.247 536.686 237.628 538.159 226.802C538.629 223.348 537.098 221.55 533.728 221.919C522.96 223.103 514.63 228.677 507.881 236.835C505.935 239.188 505.023 242.04 506.67 245.047C508.245 247.925 511.107 248.196 513.609 248.471ZM541.082 256.976C541.164 258.054 541.179 259.472 541.394 260.858C542.274 266.543 544.733 269.584 548.63 269.926C552.232 270.241 555.434 267.563 557.391 262.62C560.246 255.41 559.388 248.072 558.092 240.737C557.754 238.819 556.757 237.136 555.401 235.731C551.975 232.186 546.774 233.111 545.068 237.596C542.736 243.727 541.288 250.054 541.082 256.976ZM552.04 207.909C551.529 207.909 551.01 207.851 550.508 207.919C547.949 208.263 544.85 208.464 545.192 211.986C545.517 215.334 548.058 215.479 550.99 214.905C554.292 214.26 557.01 215.755 558.817 218.595C560.436 221.139 561.113 223.996 560.961 227.013C560.849 229.211 561.352 230.903 563.945 230.942C566.225 230.976 567.591 229.676 567.826 227.508C568.848 218.037 562.297 207.812 552.04 207.909Z" fill="#B1A9D2"/>
<path fill-rule="evenodd" clip-rule="evenodd" d="M466.657 31.7586C474.177 38.7193 483.254 39.7355 492.78 39.4368C499.936 39.212 507.102 39.2898 514.264 39.2782C516.737 39.2744 517.709 39.3521 516.854 42.8937C514.801 51.3864 516.996 59.4942 522.755 66.1461C527.931 72.1252 535.058 72.2815 542.239 71.3576C544.316 71.0896 545.23 69.6777 544.96 67.4804C544.401 62.9341 543.875 58.3817 543.466 53.8193C543.218 51.0438 544.021 48.2075 547.02 47.9234C549.91 47.6501 550.875 50.3493 551.204 52.9316C551.738 57.1075 551.11 61.245 549.354 64.9351C546.891 70.1142 546.077 75.3295 547.44 80.8242C547.91 82.7228 547.219 83.2479 545.647 83.7221C534.573 87.0566 523.518 90.4495 512.456 93.8194C513.524 88.4578 512.042 87.0527 506.72 88.2091C500.556 89.548 494.365 90.0168 488.107 88.698C484.013 87.8349 480.844 85.7323 478.269 81.9213C481.691 80.5155 485.012 79.1751 488.313 77.7893C493.57 75.5835 498.278 72.6002 501.868 68.0539C503.255 66.2978 504.206 64.4516 501.916 62.7771C499.959 61.3458 498.005 61.6915 496.558 63.6509C491.495 70.5053 483.631 72.4131 476.314 75.2948C475.176 75.7429 474.376 75.4357 473.868 74.2609C468.233 61.208 464.028 47.8803 465.987 33.3615C466.053 32.8819 466.366 32.4361 466.657 31.7586ZM483.096 53.8224C485.386 53.6661 487.241 52.7784 487.232 50.2639C487.221 47.4468 484.969 46.2666 482.648 46.0064C480.318 45.7454 478.844 47.3159 478.661 49.6811C478.418 52.8246 480.774 53.3404 483.096 53.8224Z" fill="#B0A9D0"/>
<path fill-rule="evenodd" clip-rule="evenodd" d="M348.461 266.996C346.261 266.772 344.254 266.507 342.584 265.095C341.634 264.291 340.765 263.349 341.549 262.181C342.218 261.184 341.822 259.622 343.935 259.269C349.197 258.388 354.304 256.864 358.349 252.951C359.916 251.435 360.377 249.956 358.906 248.312C357.528 246.771 355.625 246.517 354.12 247.897C348.733 252.833 342.129 252.839 335.516 252.697C333.524 252.655 331.439 253.037 329.494 252.065C328.182 251.409 326.869 250.743 327.164 249.033C327.401 247.659 328.398 247.201 329.867 246.936C334.081 246.175 338.295 245.296 342.202 243.383C344.421 242.296 346.376 240.96 347.603 238.721C348.487 237.109 348.84 235.443 347.159 234.278C345.68 233.253 344.074 233.581 342.712 234.855C337.32 239.899 330.666 240.806 323.739 240.361C320.028 240.122 319.079 238.139 320.907 234.937C324.159 229.235 329.135 225.205 334.512 221.718C338.867 218.893 343.398 216.318 347.972 213.861C351.115 212.172 352.3 210.361 350.259 206.895C348.008 203.077 346.371 198.906 345.422 194.557C345.003 192.641 344.425 190.158 346.722 189.044C348.967 187.954 351.344 188.136 353.412 190.066C355.896 192.385 357.212 195.469 359.06 198.2C361.493 201.792 363.719 204.899 369.143 203.422C371.821 202.692 374.138 205.508 375.904 207.703C380.737 213.711 382.367 221.1 384.476 228.262C385.728 232.511 386.546 236.912 388.615 240.868C389.474 242.512 388.888 243.465 387.777 244.528C378.016 253.862 367.202 261.5 354.286 265.884C352.302 266.556 350.262 266.412 348.461 266.996Z" fill="#B1AAD2"/>
<path fill-rule="evenodd" clip-rule="evenodd" d="M555.013 180.993C540.376 181.505 525.807 170.565 522.525 157.686C518.626 142.385 529.522 125.316 545.256 122.388C561.314 119.4 572.812 128.536 574.934 145.497C576.3 156.407 573.87 166.916 572.553 177.563C572.425 178.594 572.095 179.309 570.977 179.329C565.608 179.429 560.443 181.493 555.013 180.993Z" fill="#E8E1EF"/>
<path fill-rule="evenodd" clip-rule="evenodd" d="M640.617 283.933C640.924 281.791 642.756 281.663 643.915 280.852C648.006 277.99 651.465 274.686 651.851 269.341C652.007 267.19 651.378 265.181 648.729 264.928C646.15 264.682 645.597 266.22 645.47 268.513C645.314 271.347 643.746 273.492 641.305 275.019C632.579 280.48 622.97 282.112 612.391 281.83C614.043 280.195 615.928 280.089 617.51 279.419C624.647 276.393 631.001 272.37 635.574 265.891C636.759 264.212 637.963 262.655 635.784 260.978C633.541 259.25 631.896 260.288 630.33 262.212C622.75 271.529 613.146 276.191 600.974 274.952C598.737 274.725 596.758 274.012 595.12 272.537C592.143 269.856 592.644 267.211 596.305 265.846C598.199 265.139 600.11 264.48 601.981 263.72C604.13 262.847 605.452 261.277 604.514 258.938C603.562 256.56 601.761 257.122 599.732 257.843C593.798 259.954 587.97 262.538 581.512 262.756C578.958 262.843 576.134 263.41 574.776 260.521C573.395 257.581 575.411 255.442 577.237 253.495C584.046 246.228 593.025 243.265 602.304 240.906C610.887 238.725 619.75 239.029 628.459 237.94C638.176 236.725 647.896 235.66 657.332 232.948C659.457 232.337 661.037 231.904 661.504 234.754C663.871 249.189 663.041 263.067 653.708 275.15C650.442 279.374 647.007 283.862 640.617 283.933Z" fill="#B1AAD2"/>
<path fill-rule="evenodd" clip-rule="evenodd" d="M605.181 120.399C619.899 125.098 634.375 128.12 645.08 139.294C654.644 149.277 655.749 161.183 647.453 172.252C638.458 184.251 626.609 191.676 611.58 194.383C606.898 195.227 606.126 193.727 603.861 190.411C600.614 185.655 602.479 182.973 605.157 179.393C610.918 171.692 616.123 163.612 617.448 153.765C619.167 140.987 615.353 130.123 605.181 120.399Z" fill="#E7E1EE"/>
<path fill-rule="evenodd" clip-rule="evenodd" d="M556.793 47.985C556.454 47.5092 556.15 47.1181 555.882 46.7038C552.338 41.2514 549.018 39.6316 544.576 41.196C539.514 42.9783 536.148 48.4754 536.734 53.9755C537.006 56.5231 537.177 59.083 537.52 61.6206C537.929 64.6486 536.363 65.2253 533.919 64.6217C528.69 63.3314 525.622 59.7544 524.183 54.7555C523.113 51.0422 522.314 47.1181 524.058 43.468C526.454 38.4505 522.92 33.5663 517.97 32.4369C512.404 31.1665 506.798 31.6031 501.175 31.988C494.168 32.4669 487.137 33.0782 480.161 31.6146C476.97 30.9448 474.141 29.6152 471.952 27.0514C470.225 25.0289 470.204 23.8579 472.97 22.6561C484.422 17.6802 496.42 14.8524 508.701 13.0162C519.142 11.4548 529.538 11.0645 539.894 13.7029C557.475 18.1799 563.84 30.9386 556.793 47.985Z" fill="#5150A0"/>
<path fill-rule="evenodd" clip-rule="evenodd" d="M564.469 116.345C576.795 116.436 588.436 117.608 598.678 124.542C610.61 132.619 614.318 148.227 607.66 162.467C604.779 168.627 600.625 174.013 596.583 179.447C595.724 180.602 595.001 180.989 593.434 180.369C589.854 178.954 586.039 178.323 582.183 178.662C579.636 178.887 579.255 178.018 579.662 175.65C580.702 169.607 581.619 163.541 581.82 157.381C582.452 138.038 578.9 129.427 564.469 116.345Z" fill="#E7E0ED"/>
<path fill-rule="evenodd" clip-rule="evenodd" d="M658.172 167.706C663.168 178.844 667.113 189.989 666.282 202.307C666.175 203.883 666.125 205.231 664.398 206.083C652.991 211.713 641.661 217.529 628.976 219.84C623.414 220.854 617.836 221.036 612.22 220.216C610.687 219.993 610.036 219.38 609.878 217.817C609.432 213.372 609.031 208.913 607.882 204.571C607.528 203.233 608.046 202.32 609.345 201.944C611.296 201.382 613.244 200.756 615.237 200.399C634.545 196.948 648.299 186.113 657.222 168.797C657.389 168.475 657.708 168.232 658.172 167.706Z" fill="#E7E0ED"/>
<path fill-rule="evenodd" clip-rule="evenodd" d="M375.389 198.354C384.211 192.895 392.604 187.787 400.888 182.508C402.551 181.448 403.673 181.888 405.019 182.766C410.412 186.282 413.505 191.53 415.788 197.325C418.75 204.844 420.201 212.772 421.841 220.646C422.19 222.323 421.831 223.619 420.237 224.548C412.528 229.039 404.954 233.754 396.718 237.299C394.462 238.27 394.143 237.286 393.653 235.647C391.865 229.661 390.123 223.657 388.189 217.717C385.786 210.338 382.487 203.478 375.389 198.354Z" fill="#E7E1EE"/>
<path fill-rule="evenodd" clip-rule="evenodd" d="M429.058 218.924C424.98 203.434 423.035 187.659 408.985 177.149C418.408 170.974 427.659 164.922 436.898 158.849C438.47 157.816 439.494 158.777 440.574 159.72C447.915 166.131 450.413 174.707 451.211 183.97C451.808 190.918 450.747 197.732 449.173 204.496C448.933 205.527 448.505 206.02 447.753 206.517C441.597 210.593 435.448 214.68 429.058 218.924Z" fill="#E7E1EE"/>
<path fill-rule="evenodd" clip-rule="evenodd" d="M508.791 109.724C508.608 105.869 510.055 103.015 513.694 101.438C515.791 100.53 517.792 99.3309 519.96 98.6672C528.829 95.9541 537.754 93.425 546.637 90.7604C548.746 90.1275 550.887 89.8935 553.05 89.818C560.016 89.5732 563.442 92.652 564.079 99.6627C564.172 100.683 564.143 101.714 564.234 102.734C564.845 109.571 564.844 109.48 558.177 110.05C553.07 110.487 548.063 110.693 543.057 112.882C539.733 114.335 535.317 113.662 531.436 114.551C525.632 115.882 520.248 118.154 515.633 121.877C513.329 123.734 512.538 122.916 511.566 120.779C509.961 117.249 508.988 113.588 508.791 109.724Z" fill="#E7E0ED"/>
<path fill-rule="evenodd" clip-rule="evenodd" d="M527.005 189.545C514.409 196.106 503.589 204.03 494.776 214.512C494.07 215.351 493.541 215.573 492.653 214.788C484.787 207.821 477.22 200.657 473.364 190.454C472.531 188.252 473.085 187.689 475.119 187.149C485.68 184.345 495.915 180.574 505.963 176.293C506.975 175.862 507.602 175.421 508.467 176.624C513.002 182.932 519.103 187.132 527.005 189.545Z" fill="#E7E0ED"/>
<path fill-rule="evenodd" clip-rule="evenodd" d="M471.926 181.072C471.697 172.803 474.12 165.75 476.02 158.624C477.534 152.949 479.298 147.348 479.874 141.462C480.005 140.118 479.996 138.51 481.784 138.098C490.319 136.134 498.484 132.96 507.584 129.663C498.893 142.185 498.226 154.638 503.428 167.573C504.341 169.845 502.811 170.334 501.517 170.838C491.922 174.57 482.205 177.947 471.926 181.072Z" fill="#E7E0ED"/>
<path fill-rule="evenodd" clip-rule="evenodd" d="M445.05 154.126C453.893 149.013 462.853 144.557 472.753 141.145C472.71 146.44 471.165 151.144 469.965 155.902C467.628 165.166 464.507 174.277 464.945 184.05C465.072 186.882 465.26 189.699 466.433 192.281C467.661 194.984 466.57 196.349 464.112 197.112C461.927 197.79 459.747 198.46 457.422 200.121C459.414 182.955 458.317 166.937 445.05 154.126Z" fill="#E6DFEB"/>
<path fill-rule="evenodd" clip-rule="evenodd" d="M534.648 183.131C520.448 182.888 510.718 173.254 507.538 156.689C504.885 142.873 512.416 129.544 526.588 123.826C508.793 146.506 510.146 166.285 534.648 183.131Z" fill="#514F9D"/>
<path fill-rule="evenodd" clip-rule="evenodd" d="M482.696 121.082C482.603 115.821 484.971 112.517 489.342 110.563C490.725 109.945 492.137 109.346 493.591 108.941C495.912 108.295 498.45 107.061 500.648 107.826C503.378 108.776 501.308 111.831 502.101 113.829C502.752 115.473 502.705 117.455 503.556 118.949C505.727 122.759 504.163 123.882 500.499 124.794C496.468 125.798 492.581 127.474 488.739 129.112C486.202 130.194 484.805 129.731 483.955 127.049C483.295 124.972 482.579 122.943 482.696 121.082Z" fill="#E6DFEB"/>
<path fill-rule="evenodd" clip-rule="evenodd" d="M662.872 214.649C662.992 222.767 661.521 224.869 654.407 226.799C643.9 229.65 633.105 230.656 622.327 231.76C620.932 231.904 619.53 232.003 618.145 232.215C612.871 233.023 612.501 232.777 611.255 227.207C630.074 229.837 646.487 222.442 662.872 214.649Z" fill="#514F9D"/>
<path fill-rule="evenodd" clip-rule="evenodd" d="M463.845 67.7416C446.835 55.3578 445.204 43.3135 459.103 32.0668C457.534 44.4298 459.687 55.8228 463.845 67.7416Z" fill="#514F9D"/>
<path fill-rule="evenodd" clip-rule="evenodd" d="M553.487 73.9162C553.277 72.8037 553.783 71.6573 554.539 71.2354C555.495 70.7018 555.909 72.0684 556.502 72.652C558.387 74.5074 560.792 75.3513 563.17 76.2851C567.002 77.7895 570.715 79.5118 573.1 83.1195C574.731 85.587 575.524 88.2055 574.106 91.0741C573.363 92.5762 572.559 94.4447 570.857 94.5671C569.08 94.6949 569.486 92.4522 568.857 91.3251C566.606 87.2893 563.301 84.2774 558.92 83.5191C554.892 82.8223 553.892 80.8406 553.999 77.323C554.031 76.1927 553.668 75.0518 553.487 73.9162Z" fill="#514F9D"/>
<path fill-rule="evenodd" clip-rule="evenodd" d="M582.699 196.151C591.286 200.947 595.558 208.605 597.019 218.06C597.682 222.347 598.604 226.64 597.965 231.023C597.585 233.636 596.81 235.981 593.383 236.215C595.466 221.257 590.035 208.52 582.453 196.386L582.699 196.151Z" fill="#514F9D"/>
<path fill-rule="evenodd" clip-rule="evenodd" d="M483.061 325.008C479.295 324.988 476.546 322.298 476.517 318.604C476.493 315.571 479.774 310.944 481.894 311.021C484.399 311.112 489.888 316.211 489.857 318.417C489.802 322.416 487.108 325.028 483.061 325.008Z" fill="#B1AAD2"/>
<path fill-rule="evenodd" clip-rule="evenodd" d="M600.705 205.23C597.95 200.858 595.414 196.95 591.804 193.905C588.217 190.88 584.237 188.446 580.031 185.964C590.482 183.959 600.713 190.301 600.705 205.23Z" fill="#EFEEEE"/>
<path fill-rule="evenodd" clip-rule="evenodd" d="M495.194 292.115C495.48 292.209 495.622 292.22 495.719 292.292C504.377 298.715 504.395 298.74 495.148 305.38C493.591 306.497 491.816 308.976 490.057 307.609C488.402 306.324 490.008 303.824 490.762 302.007C492.148 298.664 493.712 295.395 495.194 292.115Z" fill="#B0A9D0"/>
<path fill-rule="evenodd" clip-rule="evenodd" d="M582.455 196.386C582.147 196.305 581.84 196.221 582.019 195.786C582.245 195.908 582.471 196.03 582.699 196.153C582.699 196.151 582.455 196.386 582.455 196.386Z" fill="#514F9D"/>
<path fill-rule="evenodd" clip-rule="evenodd" d="M73.316 7.49816C81.0474 6.97694 88.2989 10.6393 93.6372 18.2606C94.8088 19.9328 96.0219 21.5896 97.3547 23.1333C101.362 27.7719 106.141 29.5034 112.333 27.8589C117.251 26.5524 121.843 24.456 126.634 22.8661C130.832 21.4718 135.028 20.839 139.39 21.4934C142.751 21.9977 143.689 23.8069 141.565 26.4377C137.632 31.3081 133.38 35.8512 127.206 38.0785C100.232 47.8116 73.2484 57.5008 45.5681 65.102C39.0183 66.9005 33.9081 63.1649 34.1799 56.4237C34.5852 46.3696 36.5123 36.7258 40.1784 27.457C45.0445 15.1556 57.315 7.56591 73.316 7.49816Z" fill="#E8E1EF"/>
<path fill-rule="evenodd" clip-rule="evenodd" d="M126.913 121.556C125.608 126.524 121.932 127.459 118.462 128.681C115.224 129.822 111.869 129.841 108.61 129.237C104.712 128.515 102.058 126.27 101.031 122.103C96.6324 104.258 88.4119 97.7552 69.7921 97.0353C63.2545 96.7828 56.77 97.4064 50.2647 97.8483C46.4804 98.1047 44.8343 96.2138 45.0907 92.5653C45.3203 89.2978 46.5226 88.5757 49.4747 90.1948C50.7108 90.8731 51.9131 90.8985 53.1699 90.8146C62.5029 90.1871 74.0846 78.4731 73.2217 69.2243C72.7257 63.9112 74.9975 63.2514 78.841 62.0134C90.5993 58.2247 102.249 54.0889 113.886 49.936C116.222 49.1022 117.289 49.0083 118.298 51.8038C122.198 62.6032 127.662 72.8089 130.568 83.9933C132.019 89.5781 133.159 95.1691 132.159 101.047C131.026 107.706 127.502 112.537 121.901 116.046C119.936 117.277 116.94 118.081 118.737 121.415C120.459 124.608 122.918 123.451 125.289 122.182C125.587 122.021 125.924 121.932 126.913 121.556ZM101.596 102.406C102.731 102.545 104.479 102.134 106.19 101.608C113.828 99.2573 119.368 94.4824 122.469 87.0598C123.344 84.9656 123.099 82.9423 120.573 82.0331C118.266 81.2024 116.965 82.5143 116.036 84.4121C115.813 84.8679 115.711 85.3845 115.49 85.841C111.661 93.7148 103.876 96.7335 95.7925 93.4414C94.0051 92.7139 92.4419 92.8294 91.5014 94.6017C90.5847 96.3301 90.6922 98.1163 92.3721 99.4313C94.8689 101.386 97.761 102.268 101.596 102.406ZM109.46 78.3183C109.272 76.3659 107.992 74.9215 106.108 74.9262C103.568 74.9323 101.818 76.613 101.649 79.2291C101.518 81.2555 102.755 82.7391 104.865 82.6921C107.473 82.6336 109.03 81.073 109.46 78.3183ZM90.2484 71.3053C87.6649 71.6803 85.658 72.6696 85.5244 75.4905C85.423 77.63 86.8541 79.0474 88.8027 78.8857C91.106 78.6948 93.3318 77.6324 93.4208 74.7506C93.4853 72.6326 92.1986 71.5371 90.2484 71.3053ZM107.949 66.3703C108.003 68.5799 108.96 70.0311 111.324 70.0527C113.688 70.0735 114.772 68.5522 114.826 66.418C114.881 64.1961 113.493 62.6786 111.371 62.6578C109.254 62.6378 107.892 64.0044 107.949 66.3703Z" fill="#B0A9D0"/>
<path fill-rule="evenodd" clip-rule="evenodd" d="M210.261 187.502C208.878 178.3 208.803 169.557 212.423 161.193C213.446 158.828 214.527 156.442 216.262 154.585C226.671 143.447 230.264 142.824 241.916 148.843C266.209 161.39 270.263 190.28 260.684 208.55C258.606 212.512 256.354 216.381 254.306 220.356C253.432 222.054 252.913 222.556 251.094 221.099C243.692 215.167 235.577 210.311 227.08 206.133C224.944 205.084 224.333 204.03 225.22 201.689C226.161 199.204 226.775 196.539 227.121 193.898C227.765 188.971 225.93 185.454 222.157 183.645C218.198 181.747 214.92 182.517 211.167 186.257C210.808 186.614 210.56 187.084 210.261 187.502Z" fill="#5150A0"/>
<path fill-rule="evenodd" clip-rule="evenodd" d="M106.045 163.425C94.8157 174.468 87.2955 187.331 83.2639 202.209C82.2612 205.91 81.594 209.721 82.586 213.591C83.039 215.358 82.4309 215.891 80.6328 215.406C71.0518 212.824 61.4563 210.291 51.8584 207.77C50.3451 207.372 49.8561 206.46 49.3486 204.955C42.6475 185.041 50.9901 168.92 62.6924 154.11C68.4882 146.775 72.6695 146.221 81.7645 150.652C89.8897 154.608 97.7793 159.051 106.045 163.425Z" fill="#E7E1EE"/>
<path fill-rule="evenodd" clip-rule="evenodd" d="M64.486 142.401C47.5629 159.624 36.3988 178.606 41.4891 203.904C33.7723 203.714 19.3053 193.911 14.5175 185.092C8.30777 173.655 7.94539 161.655 11.6222 149.422C13.5647 142.96 15.4357 136.413 19.845 131.04C22.05 128.353 23.9119 126.767 27.9987 129.011C34.0118 132.312 41.01 133.326 47.7472 134.625C54.1734 135.864 59.8733 138.38 64.486 142.401Z" fill="#E7E1EE"/>
<path fill-rule="evenodd" clip-rule="evenodd" d="M245.611 236.537C241.246 236.778 237.491 234.693 233.622 233.224C231.467 232.406 229.779 232.265 228.865 234.506C227.897 236.878 229.27 238.423 231.436 239.215C234.521 240.342 237.611 241.493 240.777 242.344C242.53 242.816 244.084 243.582 245.54 244.535C247.365 245.729 249.39 247.149 248.525 249.737C247.661 252.319 245.594 253.859 242.833 254.094C238.418 254.47 234.7 252.477 231.027 250.386C229.601 249.574 228.19 248.691 226.672 248.096C224.992 247.438 223.48 247.674 222.511 249.555C221.517 251.482 222.296 252.772 223.9 253.629C227.148 255.365 230.451 257.006 233.778 258.585C236.156 259.715 238.612 260.875 237.769 264.087C236.948 267.218 235.234 269.557 231.424 269.554C227.46 269.55 223.89 268.245 220.637 266.295C212.565 261.459 204.146 257.321 195.611 253.423C192.315 251.917 191.451 249.767 192.264 246.393C193.051 243.128 194.467 240.164 196.096 237.303C199.49 231.346 200.732 224.699 202.418 218.19C203.539 213.861 204.908 209.702 208.264 206.447C210.453 204.325 210.17 201.039 211.514 198.46C212.863 195.873 213.839 193.087 215.853 190.884C216.844 189.797 218.004 188.769 219.495 189.558C220.753 190.224 220.633 191.567 220.505 192.937C220.135 196.91 218.686 200.559 217.436 204.274C216.428 207.274 217.055 208.878 220.373 210.334C229.557 214.363 238.324 219.268 246.062 225.79C247.23 226.774 248.337 227.871 249.292 229.062C250.637 230.74 252.143 232.58 251.05 234.886C249.934 237.244 247.58 236.497 245.611 236.537Z" fill="#B1AAD2"/>
<path fill-rule="evenodd" clip-rule="evenodd" d="M165.803 179.306C165.12 179.306 164.977 179.344 164.866 179.301C154.953 175.482 156.877 177.953 156.292 167.784C155.812 159.457 155.665 151.132 155.584 142.797C155.54 138.292 154.451 137.289 150.017 137.852C139.397 139.202 128.946 141.88 118.159 141.909C114.202 141.92 110.26 141.902 106.337 141.106C101.09 140.041 99.3646 142.125 101.019 147.234C101.608 149.052 102.277 150.872 101.722 153.385C97.7723 151.213 93.9496 149.127 90.1422 147.013C84.7164 144.002 79.6545 140.119 73.0134 140.06C72.3684 140.054 71.6091 139.441 71.107 138.915C63.4424 130.876 53.3739 128.281 43.0052 126.305C39.8842 125.71 36.7825 124.981 33.7099 124.17C29.729 123.118 28.2541 120.42 29.263 116.428C30.0737 113.219 32.1175 110.911 34.9406 109.527C42.5507 105.796 50.6222 104.119 59.0477 105.554C63.5169 106.315 66.9657 108.923 69.0601 113.126C70.5527 116.123 71.4272 119.32 72.1895 122.546C74.4875 132.264 80.483 138.017 90.4278 138.899C105.475 140.232 120.269 139.205 134.129 132.365C138.759 130.08 142.77 126.915 146.132 122.973C149.311 119.247 153.628 119.218 156.939 123.002C158.945 125.294 159.649 128.16 160.292 131.04C163.293 144.47 163.694 158.195 164.811 171.834C165.004 174.237 165.27 176.631 165.803 179.306Z" fill="#E6DFEB"/>
<path fill-rule="evenodd" clip-rule="evenodd" d="M34.2428 209.373C58.7868 217.773 83.9442 222.166 107.844 230.91C116.891 234.219 125.672 238.137 135.499 242.278C128.479 242.977 122.451 242.882 116.436 242.714C104.767 242.387 93.251 244.013 81.6977 245.211C72.8054 246.133 63.9423 247.059 55.0378 244.949C48.534 243.408 44.2798 239.762 41.8345 233.5C38.8141 225.768 37.3085 217.59 34.2428 209.373Z" fill="#E7E0ED"/>
<path fill-rule="evenodd" clip-rule="evenodd" d="M154.612 227.419C154.713 221.686 156.91 216.621 158.986 211.569C161.962 204.326 166.264 197.851 170.914 191.576C171.883 190.269 172.498 190.384 173.614 190.964C182.076 195.361 190.542 199.748 199.021 204.111C200.353 204.796 200.363 205.428 199.634 206.755C197.231 211.134 195.656 215.876 194.779 220.776C193.118 230.056 187.967 238.021 185.267 246.896C184.841 248.295 183.857 248.087 182.833 247.939C175.019 246.813 167.337 245.046 159.692 243.111C158.992 242.934 158.137 242.737 157.982 241.804C157.173 236.905 154.809 232.364 154.612 227.419Z" fill="#E7E1EE"/>
<path fill-rule="evenodd" clip-rule="evenodd" d="M118.769 227.198C110.242 224.389 101.899 221.756 93.6464 218.865C90.2944 217.691 88.4156 212.547 89.1696 207.529C90.7673 196.891 96.0303 187.859 101.756 179.052C104.493 174.843 107.751 171.075 111.757 168.004C112.789 167.212 113.773 166.547 115.212 167.127C123.459 170.45 131.725 173.723 139.986 177.014C124.135 190.183 115.313 206.01 118.769 227.198Z" fill="#E7E1EE"/>
<path fill-rule="evenodd" clip-rule="evenodd" d="M165.672 187.247C158.946 195.8 153.993 204.975 150.295 214.834C146.622 224.626 146.632 227.84 150.324 240.236C142.974 237.93 136.182 235.037 129.524 231.82C128.223 231.191 127.664 229.737 127.222 228.398C125.281 222.52 123.978 216.592 125.655 210.373C128.863 198.478 134.712 188.504 145.671 182.13C147.687 180.957 149.534 180.729 151.772 181.709C156.276 183.682 160.905 185.368 165.672 187.247Z" fill="#E7E0ED"/>
<path fill-rule="evenodd" clip-rule="evenodd" d="M196.807 130.664C196.976 137.277 195.187 141.654 190.159 144.606C184.332 148.026 178.7 151.787 173.037 155.481C170.941 156.848 170.346 156.441 170.18 153.943C169.612 145.399 169.271 136.814 167.126 128.456C165.003 120.192 161.079 113.767 151.498 113.189C150.785 113.145 150.192 112.943 150.04 112.247C149.869 111.475 150.481 111.114 151.111 110.953C159.351 108.839 167.355 105.551 176.02 105.494C188.564 105.412 195.805 112.379 196.394 124.867C196.502 127.172 196.72 129.471 196.807 130.664Z" fill="#E7E0ED"/>
<path fill-rule="evenodd" clip-rule="evenodd" d="M193.628 103.879C201.019 104.063 207.397 103.014 213.721 104.593C223.69 107.081 227.866 112.184 228.155 122.437C228.187 123.586 228.094 124.74 228.035 125.889C227.514 135.985 227.511 135.946 217.523 136.29C215.111 136.373 212.697 136.725 210.311 137.117C208.067 137.485 205.858 138.067 203.539 138.577C203.22 126.391 205.405 113.626 193.628 103.879Z" fill="#E6DFEB"/>
<path fill-rule="evenodd" clip-rule="evenodd" d="M217.909 143.077C202.843 156.082 200.843 172.458 202.982 190.094C203.244 192.247 203.776 194.368 204.051 196.521C204.136 197.181 205.043 198.524 203.364 198.429C202.389 198.376 201.555 197.811 201.749 196.372C202.702 189.265 199.702 183.483 195.594 178.026C190.314 171.012 183.379 168.334 174.773 169.4C173.857 169.513 172.071 171.27 171.778 168.971C171.556 167.228 170.174 165.137 172.878 163.58C178.514 160.336 183.977 156.787 189.461 153.284C192.9 151.088 196.246 148.745 199.639 146.474C200.151 146.132 200.701 145.53 201.214 145.551C206.638 145.771 211.746 143.822 217.909 143.077Z" fill="#E6DFEB"/>
<path fill-rule="evenodd" clip-rule="evenodd" d="M108.526 148.384C121.79 149.4 134.449 147.19 147.092 144.877C148.615 144.6 148.799 145.179 148.831 146.433C149.041 154.628 149.281 162.822 149.554 171.015C149.625 173.146 149.161 173.659 146.934 172.752C135.143 167.943 123.283 163.304 111.429 158.649C109.697 157.969 108.746 157.01 108.826 154.993C108.907 152.971 108.657 150.934 108.526 148.384Z" fill="#B1AAD2"/>
<path fill-rule="evenodd" clip-rule="evenodd" d="M226.44 103.151C239.425 104.425 250.677 116.289 250.1 127.23C249.831 132.313 247.329 136.723 245.365 141.275C244.897 142.358 244.232 142.293 243.251 141.781C241.676 140.96 240.009 140.307 238.35 139.665C232.928 137.567 232.998 137.598 234.294 131.687C235.537 126.022 236.225 120.291 234.489 114.601C233.161 110.25 230.651 106.596 226.44 103.151Z" fill="#E6DFEB"/>
<path fill-rule="evenodd" clip-rule="evenodd" d="M98.9317 132.857C95.995 132.693 93.3462 132.642 90.7182 132.376C84.3641 131.734 80.8616 127.792 78.7817 122.049C76.7164 116.347 75.5057 110.297 71.8096 105.162C79.3898 104.037 92.9923 108.51 93.6771 119.05C93.8407 121.565 94.4273 124.137 95.314 126.496C96.134 128.676 97.6166 130.605 98.9317 132.857Z" fill="#5150A0"/>
<path fill-rule="evenodd" clip-rule="evenodd" d="M194.924 194.116C188.38 190.682 182.173 187.532 176.085 184.168C174.035 183.035 173.483 180.575 172.61 178.554C171.858 176.813 173.626 176.766 174.579 176.583C180.316 175.486 185.452 176.496 189.429 181.187C192.513 184.826 194.755 188.809 194.924 194.116Z" fill="#E6DFEB"/>
<path fill-rule="evenodd" clip-rule="evenodd" d="M66.6572 69.039C66.7071 73.9002 59.137 82.5477 54.6693 83.2106C53.5753 83.373 53.0347 82.9534 52.558 82.0719C50.9833 79.1547 49.4155 76.2322 47.7448 73.3705C46.5579 71.3387 48.2646 71.2571 49.3418 70.9392C54.092 69.5349 58.9181 68.3723 63.6176 66.8217C66.476 65.8786 66.6073 67.433 66.6572 69.039Z" fill="#514F9D"/>
<path fill-rule="evenodd" clip-rule="evenodd" d="M133.51 121.472C132.411 114.79 137.19 109.89 138.742 103.999C139.263 102.022 140.58 103.779 141.173 104.49C144.097 107.999 143.971 114.781 141.139 118.366C139.772 120.096 138.145 121.502 136.472 122.884C135.699 123.522 134.898 124.495 133.818 123.889C132.915 123.383 133.478 122.276 133.51 121.472Z" fill="#514F9D"/>
<path fill-rule="evenodd" clip-rule="evenodd" d="M258.249 152.232C258.123 152.215 257.959 152.246 257.875 152.178C255.608 150.333 252.388 148.896 251.36 146.51C250.318 144.092 253.362 141.441 253.972 138.607C254.525 136.041 255.64 133.598 256.53 131.033C259.585 134.841 260.499 146.618 258.249 152.232Z" fill="#B1AAD2"/>
<path fill-rule="evenodd" clip-rule="evenodd" d="M513.609 248.471C511.106 248.196 508.244 247.925 506.669 245.048C505.022 242.04 505.934 239.189 507.88 236.835C514.629 228.677 522.959 223.103 533.727 221.92C537.098 221.55 538.629 223.348 538.158 226.803C536.686 237.627 524.813 248.247 513.609 248.471Z" fill="#0C0A0D"/>
<path fill-rule="evenodd" clip-rule="evenodd" d="M541.082 256.976C541.287 250.055 542.736 243.727 545.068 237.596C546.774 233.112 551.975 232.186 555.401 235.732C556.757 237.136 557.753 238.819 558.092 240.738C559.388 248.072 560.246 255.41 557.391 262.62C555.434 267.564 552.232 270.242 548.63 269.926C544.732 269.585 542.275 266.543 541.393 260.859C541.178 259.472 541.165 258.054 541.082 256.976Z" fill="#0C0A0D"/>
<path fill-rule="evenodd" clip-rule="evenodd" d="M552.04 207.909C562.297 207.812 568.849 218.037 567.826 227.508C567.591 229.676 566.224 230.976 563.945 230.942C561.352 230.903 560.85 229.212 560.961 227.013C561.113 223.996 560.435 221.139 558.817 218.595C557.01 215.755 554.291 214.26 550.99 214.905C548.058 215.479 545.517 215.334 545.192 211.986C544.85 208.464 547.949 208.263 550.507 207.919C551.01 207.852 551.529 207.909 552.04 207.909Z" fill="#121113"/>
<path fill-rule="evenodd" clip-rule="evenodd" d="M483.096 53.8228C480.774 53.3408 478.418 52.825 478.661 49.6823C478.844 47.3171 480.318 45.7465 482.648 46.0075C484.969 46.2678 487.221 47.448 487.232 50.2651C487.241 52.778 485.386 53.6665 483.096 53.8228Z" fill="#19171B"/>
<path fill-rule="evenodd" clip-rule="evenodd" d="M101.596 102.407C97.7611 102.268 94.8689 101.386 92.3721 99.432C90.6923 98.117 90.5848 96.3309 91.5015 94.6024C92.442 92.8301 94.0052 92.7146 95.7925 93.4422C103.876 96.7343 111.66 93.7155 115.49 85.8418C115.712 85.3852 115.813 84.8686 116.036 84.4128C116.965 82.515 118.266 81.2031 120.573 82.0338C123.099 82.9439 123.344 84.9664 122.469 87.0605C119.368 94.4831 113.828 99.2588 106.19 101.609C104.479 102.135 102.731 102.545 101.596 102.407Z" fill="#111012"/>
<path fill-rule="evenodd" clip-rule="evenodd" d="M109.46 78.319C109.03 81.0737 107.472 82.6342 104.865 82.6928C102.754 82.7397 101.517 81.2561 101.649 79.2297C101.818 76.6144 103.567 74.9329 106.108 74.9268C107.992 74.9221 109.273 76.3665 109.46 78.319Z" fill="#19171B"/>
<path fill-rule="evenodd" clip-rule="evenodd" d="M90.2482 71.3056C92.1983 71.5366 93.4851 72.6329 93.4198 74.7501C93.3308 77.6319 91.105 78.6951 88.8018 78.8853C86.8532 79.0469 85.4221 77.6303 85.5234 75.49C85.6578 72.6706 87.6647 71.6813 90.2482 71.3056Z" fill="#121113"/>
<path fill-rule="evenodd" clip-rule="evenodd" d="M107.949 66.3705C107.891 64.0054 109.254 62.6388 111.37 62.6588C113.493 62.6789 114.881 64.1971 114.825 66.419C114.772 68.5532 113.687 70.0745 111.323 70.0537C108.96 70.0314 108.003 68.5794 107.949 66.3705Z" fill="#19171B"/>
</svg>
