<svg width="1668" height="1620" viewBox="0 0 1668 1620" fill="none" xmlns="http://www.w3.org/2000/svg">
<path fill-rule="evenodd" clip-rule="evenodd" d="M254.067 323.121C221.963 322.21 189.854 321.55 157.77 320.268C146.859 319.832 136.018 317.821 125.142 316.564C113.154 315.184 107.199 307.433 105.368 296.516C103.953 288.075 102.861 279.311 103.537 270.841C107.39 222.359 105.721 173.818 105.882 125.296C105.902 119.033 105.921 112.769 106.147 106.516C106.822 87.6081 113.658 71.5778 128.173 58.9923C141.189 47.6987 153.563 35.8619 163.862 21.8085C170.972 12.1051 181.319 6.12558 193.449 4.17807C201.925 2.81774 210.475 1.12468 219.006 1.04638C257.387 0.69407 295.784 0.424939 334.161 0.972984C374.683 1.55528 392.596 18.8285 396.802 58.7477C397.924 69.3856 392.782 82.2402 400.837 90.1869C407.987 97.238 420.361 92.9858 430.189 95.1242C440.106 97.287 450.085 99.4302 459.742 102.498C489.153 111.83 506.752 132.269 514.181 161.868C517.433 174.821 519.127 187.998 519.558 201.327C519.656 204.356 521.957 205.32 523.896 206.133C524.856 206.534 527.035 205.34 527.961 204.268C532.035 199.527 535.904 194.604 539.758 189.686C553.293 172.418 567.425 155.708 583.017 140.211C615.121 108.302 653.527 88.5917 697.913 80.5765C715.615 77.3812 733.455 74.3816 751.362 72.9381C808.358 68.3531 865.357 63.4305 922.573 70.6432C952.243 74.3816 981.208 80.5961 1009.01 91.6157C1046.92 106.638 1078.28 130.742 1105.11 161.193C1144.53 205.927 1171.83 257.419 1191.36 313.378C1201.18 341.505 1208.56 370.267 1214.14 399.49C1215.39 405.998 1218.48 408.665 1225.07 408.503C1233.67 408.298 1242.32 408.371 1250.9 408.983C1271.95 410.48 1287.94 420.404 1298.68 438.646C1306.32 451.618 1311.25 465.612 1313.45 480.434C1315.75 495.911 1317.57 511.433 1317.41 527.179C1317.16 552.228 1317.76 577.286 1317.43 602.33C1317.29 613.232 1313.4 624.575 1315.46 634.87C1317.6 645.611 1330.27 650.176 1337.22 658.642C1356.8 682.506 1366.24 710.29 1369.95 740.29C1373.03 765.178 1374.32 790.182 1371.92 815.275C1371.1 823.838 1370.93 832.465 1370.48 841.067C1369.95 851.172 1366.78 862.925 1372.27 870.843C1378.12 879.259 1390.96 876.318 1400.66 877.6C1462.77 885.816 1512.58 915.684 1552.97 962.469C1587.94 1002.97 1609.87 1050.2 1623.59 1101.47C1628.44 1119.61 1632.42 1137.96 1634.57 1156.67C1636.09 1169.89 1639.33 1182.6 1644.59 1195.02C1658.85 1228.63 1662.76 1264.57 1665.74 1300.43C1668.46 1333.16 1669.27 1365.95 1663.22 1398.67C1660.68 1412.41 1661.16 1426.63 1657.96 1440.5C1643.3 1503.93 1607.21 1550.4 1549.06 1579.79C1512.35 1598.34 1473.28 1609.56 1432.79 1615.23C1359.36 1625.51 1287.49 1618.58 1217.78 1592.6C1184.56 1580.22 1153.81 1563.1 1125.38 1542.06C1106.99 1528.46 1092.74 1510.6 1078.49 1492.91C1075.05 1488.65 1071.8 1484.22 1068.67 1479.73C1065.65 1475.39 1061.58 1473.94 1056.52 1474.52C1053.4 1474.87 1050.27 1475.06 1047.16 1475.42C1002.7 1480.55 958.046 1480.6 913.381 1480.48C863.247 1480.37 813.142 1481.01 763.027 1483.52C711.394 1486.11 659.653 1486.39 607.962 1484.57C598.295 1484.23 592.012 1486.73 585.965 1494.33C562.283 1524.09 533.083 1548.07 500.073 1566.27C467.181 1584.4 431.835 1597.6 394.667 1604.9C319.705 1619.64 245.214 1618.33 171.364 1597.92C151.693 1592.49 132.835 1584.93 114.834 1575.25C49.2152 1540.01 12.1849 1485.18 3.49288 1411.5C-2.03082 1364.68 -0.0720651 1317.71 3.67406 1270.85C5.80911 1244.12 13.1985 1218.58 23.1441 1193.78C27.2282 1183.59 29.7158 1173.3 31.1457 1162.28C38.7555 1103.55 54.8761 1047.46 86.3093 996.585C121.964 938.874 171.687 899.385 237.521 881.319C250.292 877.815 263.582 876.161 276.667 873.862C286.255 872.178 287.846 870.848 287.729 862.343C287.234 826.353 286.441 790.363 286.206 754.368C286.118 741.093 286.637 727.744 287.978 714.542C290.819 686.533 302.689 663.285 327.844 649.105C337.383 643.727 338.044 637.821 336.717 628.112C333.334 603.318 331.438 578.319 328.99 553.397C327.212 535.341 328.642 517.339 331.429 499.567C335.145 475.844 343.862 454.25 363.004 438.367C368.763 433.591 372.22 428.492 372.107 420.487C371.701 391.528 371.999 362.555 371.799 333.592C371.745 325.641 369.879 323.713 362.171 323.659C333.975 323.453 305.769 323.527 277.572 323.497C269.742 323.493 261.907 323.497 254.077 323.497C254.067 323.356 254.067 323.238 254.067 323.121ZM1186.5 399.93L1187.03 400.439L1186.26 400.072C1186.98 393.579 1188.74 386.968 1184.06 381.106C1181.71 371.231 1179.72 361.259 1176.97 351.502C1159.15 288.349 1131.17 230.32 1088.7 179.875C1058.8 144.389 1022.47 118.211 977.257 105.576C957.64 100.091 937.562 96.323 917.279 95.2563C850.02 91.7136 782.987 92.5307 716.11 103.09C668.595 110.592 628.71 131.006 595.146 164.75C562.954 197.114 536.388 233.706 514.318 273.562C486.102 324.515 472.724 379.329 472.268 437.427C471.064 440.52 470.868 444.933 473.889 445.266C476.627 445.57 477.479 440.994 477.322 437.765C479.952 433.009 482.792 428.355 485.167 423.481C515.371 361.489 556.946 308.152 608.373 262.41C639.547 234.68 673.879 211.716 712.54 195.553C739.424 184.318 767.287 176.44 796.399 174.943C821.383 173.656 846.47 174.229 871.508 174.229C889.622 174.229 907.246 177.605 924.6 182.704C972.389 196.752 1016.02 219.031 1055.92 248.709C1104.82 285.085 1145.37 329.086 1176.88 381.311C1177.82 388.695 1181.77 394.533 1186.5 399.93ZM594.578 1057.17C599.911 1060.39 605.322 1063.49 610.557 1066.88C614.734 1069.58 617.511 1073.46 616.526 1078.62C615.253 1085.27 618.632 1086.76 624.175 1086.67C641.251 1086.42 647.666 1083.98 662.278 1071.33C642.206 1064.89 623.069 1058.74 603.927 1052.59C578.82 1041.71 553.709 1030.82 528.602 1019.93C510.317 1009.38 491.606 999.506 474.722 986.7C455.482 972.113 440.874 954.082 434.949 930.286C432.51 920.494 430.561 910.502 430.772 900.163C430.934 892.314 428.96 891.022 420.773 891.448C376.999 893.714 333.216 895.759 289.467 898.45C230.597 902.066 180.643 925.133 140.317 968.414C104.296 1007.07 81.5593 1052.83 68.2152 1103.57C67.8578 1104.92 68.6609 1106.58 68.9596 1108.29C76.6428 1106.69 79.6054 1099.65 84.2428 1094.8C129.04 1047.84 181.99 1014.37 245.268 998.664C284.937 988.814 325.386 984.474 366.344 986.847C397.532 988.653 426.551 996.996 450.8 1017.6C457.343 1023.16 463.988 1024.61 472.21 1024.32C486.274 1023.84 500.372 1024.46 514.46 1024.61C516.561 1025.51 518.578 1026.87 520.767 1027.24C542.98 1030.97 562.998 1040.12 582.189 1051.5C586.072 1053.8 590.436 1055.29 594.578 1057.17ZM1055.05 1071.67C1058.08 1069.68 1061.2 1067.8 1064.12 1065.64C1065.2 1064.84 1064.43 1063.53 1062.43 1063.36C1059.4 1063.1 1056.56 1063.64 1055.04 1066.8C1032.84 1070.25 1010.64 1073.69 988.436 1077.15C987.677 1077.27 986.81 1077.41 986.242 1077.86C985.797 1078.21 985.738 1079.05 985.464 1079.79C987.139 1086.15 993.651 1086.16 998.044 1088.72C1004.7 1092.62 1012.05 1098.34 1018.91 1098.06C1025.7 1097.79 1032.03 1090.63 1038.94 1087.31C1046.2 1083.81 1052.52 1079.82 1055.05 1071.67ZM1351.92 1089.57C1347.53 1084.81 1341.89 1083.85 1335.52 1083.67C1337.58 1089.67 1341.15 1093.27 1346.39 1095.24C1377.78 1128.91 1400.64 1167.56 1414.22 1211.59C1431.2 1266.68 1433.77 1322.08 1416.79 1377.63C1405.45 1414.78 1383.44 1444.53 1351.43 1466.55C1312.04 1493.63 1268.03 1505.54 1220.56 1502.5C1176.19 1499.66 1134.46 1487.62 1098.03 1460.78C1088.36 1450.87 1088.34 1450.89 1077.51 1448C1082.73 1455.2 1084.56 1462.94 1091.66 1467.23C1094.26 1471.11 1096.61 1475.2 1099.5 1478.85C1136.61 1525.76 1185.06 1556.17 1241.44 1574.03C1311.34 1596.17 1382.8 1599.63 1454.83 1587.06C1490.48 1580.84 1524.32 1568.69 1554.81 1548.49C1614.62 1508.86 1651.42 1441.78 1634.32 1357.57C1623.89 1306.27 1599.01 1262.77 1563.68 1224.81C1549.26 1209.31 1533.18 1195.58 1516.58 1182.5C1466.5 1143.05 1412.23 1110.96 1351.92 1089.57ZM307.111 1090C218.888 1122.88 142.922 1173.4 82.4358 1246.12C71.408 1259.37 61.9717 1273.75 53.6225 1288.86C30.9253 1329.92 21.6751 1373.32 29.9557 1420C38.3784 1467.48 60.2871 1506.63 99.81 1535.24C128.721 1556.17 160.85 1570.18 195.329 1578.67C258.705 1594.27 322.374 1594.11 386.137 1580.87C421.576 1573.52 455.629 1562.07 487.277 1544.43C524.655 1523.59 556.897 1496.87 579.56 1459.86C581.004 1458.28 582.698 1456.86 583.825 1455.07C584.897 1453.37 586.165 1451.04 584.03 1449.39C581.974 1447.81 580.172 1449.57 578.703 1450.97C577.17 1452.44 575.833 1454.1 574.413 1455.68C570.378 1458 566.26 1460.19 562.318 1462.65C497.527 1503.08 428.701 1510.05 357.519 1484.02C298.154 1462.31 260.57 1419.56 246.418 1357.4C236.15 1312.28 237.888 1267.34 249.077 1222.57C261.099 1174.48 284.247 1132.5 317.619 1096C323.927 1092.61 329.367 1088.41 335.596 1077.45C323.153 1083.16 314.04 1083.52 307.111 1090ZM559.615 353.752C554.835 355.45 552.372 359.59 549.845 363.451C541.702 375.885 533.259 388.157 525.875 401.036C489.388 464.663 466.906 532.019 471.705 606.602C474.707 653.259 490.382 694.984 519.186 731.771C549.336 770.276 588.82 796.754 632.387 817.325C678.741 839.217 727.754 851.289 778.878 856.799C822.96 861.555 866.356 860.117 909.552 851.24C997.828 833.101 1071.52 790.383 1127.9 719.489C1163.32 674.946 1184.98 624.129 1190.57 567.563C1197.76 494.698 1178.43 428.135 1137.66 367.6C1135.57 364.483 1133.75 360.681 1129.22 360.158C1128.6 360.393 1127.67 360.456 1127.42 360.897C1126.68 362.242 1126.09 363.7 1125.63 365.173C1116.44 394.905 1095.55 411.674 1066.13 419.283C1036.65 426.902 1007.41 428.649 978.794 416.083C971.317 412.799 965.426 413.871 959.5 419.097C946.641 430.444 930.672 434.256 914.375 437.246C894.274 440.931 874.054 443.094 853.654 441.073C845.182 440.236 838.924 442.741 832.661 448.545C801.316 477.601 764.516 488.498 722.294 480.248C652.127 466.542 597.232 432.431 567.386 364.748C565.535 360.579 564.957 355.48 559.615 353.752ZM749.898 456.271C762.581 457.646 777.115 455.346 791.037 449.396C797.57 446.607 803.72 443.231 807.706 436.967C809.117 434.751 809.19 432.392 807.662 430.508C806.227 428.742 803.95 427.69 802.315 426.05C794.583 418.319 785.802 411.307 779.534 402.514C770.877 390.374 769.432 375.89 776.351 362.546C782.693 350.317 808.225 343.07 822.039 346.559C836.363 350.175 845.177 359.296 850.476 372.122C854.628 382.182 857.939 392.531 858.017 403.815C858.066 411.302 860.774 413.25 868.276 413.758C889.524 415.192 910.296 413.333 930.55 405.973C947.728 399.734 948.438 398.736 939.134 384.012C937.043 380.709 935.163 377.26 932.866 374.118C925.624 364.229 927.533 353.317 929.497 342.581C930.212 338.642 933.723 336.122 937.734 335.001C939.232 334.586 940.814 334.463 942.361 334.287C956.807 332.633 968.403 338.138 977.834 348.683C985.988 357.794 991.526 367.175 985.787 380.411C982.971 386.909 987.54 391.925 994.469 394.577C1023.96 405.856 1051.94 398.335 1078.19 385.436C1107.81 370.874 1108.06 336.044 1093.61 319.553C1079.21 303.117 1064.01 287.224 1046.71 273.64C1021.44 253.803 993.71 238.227 964.353 225.148C953.58 220.348 942.009 218.106 931.515 213.267C905.306 201.186 877.365 199.722 849.398 198.049C842.42 197.633 834.884 197.198 828.445 199.311C818.421 202.605 808.406 203.109 798.314 202.448C781.591 201.357 765.715 204.997 749.918 209.499C689.544 226.694 641.27 263.115 596.944 305.779C595.817 306.865 594.701 307.986 593.756 309.224C585.671 319.827 582.591 330.999 587.429 344.304C591.723 356.111 596.434 367.527 603.202 378.165C616.918 399.734 635.521 415.774 657.146 429.153C684.97 446.372 714.308 457.387 749.898 456.271ZM961.866 1249.19C957.596 1237.19 949.868 1228.73 951.714 1218.11C953.693 1206.73 948.027 1198.58 942.733 1189.96C933.953 1175.68 922.122 1164.26 907.961 1155.58C893.304 1146.59 878.197 1138.3 863.002 1130.22C847.097 1121.76 830.457 1114.31 816.751 1102.57C806.962 1094.18 795.821 1092.79 784.128 1091.61C778.624 1091.06 775.147 1093.41 773.927 1098.84C767.782 1126.1 749.923 1143.82 726.471 1156.97C712.133 1165.01 697.58 1172.68 683.477 1181.1C676.141 1185.49 669.148 1190.67 662.768 1196.35C654.996 1203.28 653.547 1212.55 656.647 1222.22C659.795 1232.05 665.593 1240.43 672.449 1248.08C684.006 1260.99 697.379 1271.83 711.218 1282.13C727.539 1294.29 744.022 1306.24 760.167 1318.64C773.271 1328.7 784.882 1340.4 794.441 1353.91C808.054 1373.13 814.709 1394.44 811.443 1418.11C809.028 1435.61 797.986 1446.01 780.533 1448.22C765.04 1450.18 751.172 1445.92 738.097 1437.83C722.652 1428.28 708.461 1416.7 696.659 1403.41C684.055 1389.22 670.505 1389.07 654.707 1393.1C653.948 1393.29 653.204 1393.64 652.44 1393.7C644.581 1394.3 639.792 1398.5 636.77 1405.73C631.952 1417.27 627.069 1428.84 621.32 1439.93C611.404 1459.07 612.124 1458.75 634.292 1459.75C642.117 1460.09 649.962 1460.38 657.783 1460.22C697.717 1459.35 737.666 1458.82 777.576 1457.28C862.13 1454.01 946.798 1457.16 1031.31 1452.25C1034.43 1452.07 1037.61 1452.27 1040.69 1451.81C1043.45 1451.4 1047.21 1452.7 1048.84 1446.54C1040.24 1427.38 1028.08 1408 1023.25 1385.67C1022.35 1381.49 1019.02 1379.3 1015.2 1377.89C1002 1372.99 988.975 1367.53 975.543 1363.36C958.095 1357.96 940.319 1356.35 922.308 1361.61C915.57 1363.57 908.533 1364.6 901.585 1365.73C887.981 1367.95 874.872 1365.61 862.919 1359.16C846.984 1350.56 843.238 1334.33 853.105 1319.33C859.222 1310.04 867.688 1303.03 876.645 1296.63C891.982 1285.68 908.529 1276.8 925.3 1268.3C937.087 1262.32 948.737 1256.07 961.866 1249.19ZM1199.75 644.079C1189.15 664.43 1182.22 680.157 1173.24 694.617C1100.69 811.37 994.988 873.808 858.296 882.836C787.193 887.533 717.877 876.015 651.054 851.054C585.994 826.749 529.42 790.461 487.929 733.411C486.494 731.439 484.623 730.45 482.121 731.047C483.042 764.85 498.163 817.721 515.964 849.391C529.21 872.947 546.52 892.529 569.345 907.547C604.308 930.54 641.838 947.623 682.086 958.662C750.799 977.511 820.747 982.066 891.443 974.668C921.755 971.497 951.993 967.313 982.129 962.665C1008.38 958.613 1034.56 953.852 1059.68 944.667C1084.33 935.654 1105.95 922.236 1123.95 902.893C1154.98 869.556 1176.09 831.06 1187.17 786.825C1191.38 769.983 1192.44 752.837 1194.37 735.794C1197.63 707.119 1201.34 678.425 1199.75 644.079ZM574.716 1370.33C569.222 1360.56 560.486 1354.09 552.152 1347.22C549.164 1344.75 545.947 1342.43 543.523 1339.47C540.384 1335.64 541.378 1328.35 545.027 1324.28C548.606 1320.29 553.204 1319.65 557.857 1321.52C565.236 1324.47 571.117 1329.7 576.719 1335.2C583.972 1342.33 590.95 1349.76 598.432 1356.64C610.498 1367.73 624.969 1372.74 641.329 1372.02C643.454 1371.92 646.162 1371.21 645.869 1368.03C645.736 1366.58 645.403 1364.63 644.419 1363.86C632.662 1354.73 620.14 1346.76 606.977 1339.79C602.869 1337.62 598.682 1335.35 595.151 1332.39C591.028 1328.93 590.671 1322.3 593.486 1317.26C596.292 1312.23 601.478 1310.27 607.599 1312.6C612.697 1314.54 617.765 1316.78 622.432 1319.58C651.975 1337.29 680.754 1356.15 706.766 1378.86C720.345 1390.71 734.067 1402.38 749.511 1411.68C756.818 1416.07 764.765 1419.69 772.835 1422.45C781.483 1425.39 788.231 1420.1 788.804 1410.7C789.539 1398.67 786.503 1387.46 780.489 1377.04C772.14 1362.58 760.716 1350.8 747.646 1340.69C734.659 1330.64 721.021 1321.42 707.986 1311.44C693.089 1300.03 678.115 1288.66 663.967 1276.37C651.515 1265.54 640.962 1252.78 635.076 1237.01C626.673 1214.48 629.273 1193.73 647.445 1176.83C654.825 1169.97 663.287 1164.07 671.9 1158.78C681.871 1152.65 692.507 1147.59 702.922 1142.19C713.387 1136.78 723.573 1130.86 732.103 1122.7C742.533 1112.73 750.021 1100.96 750.648 1085.96C750.98 1077.92 746.466 1072.75 738.395 1071.5C725.448 1069.5 713.446 1072.4 702.447 1079.18C692.463 1085.33 682.85 1092.09 672.914 1098.33C652.847 1110.93 630.977 1114.93 607.673 1111.22C599.955 1109.99 592.296 1108.35 584.633 1106.79C547.495 1099.22 510.254 1096.71 472.792 1104.45C445.512 1110.08 419.294 1119.32 400.039 1139.87C367.494 1174.62 364.972 1179.73 387.038 1219.28C403.168 1248.2 416.135 1277.98 425.18 1309.72C428.804 1322.46 433.661 1334.89 438.759 1347.12C443.401 1358.26 451.035 1367.43 462.7 1371.63C478.82 1377.44 495.539 1378.6 512.168 1376.93C513.471 1371.35 509.7 1370.38 507.702 1368.32C505.014 1365.53 501.753 1363.21 499.397 1360.19C495.426 1355.08 496.44 1348.12 501.557 1343.3C505.474 1339.61 509.945 1339.4 514.387 1342.36C519.592 1345.82 524.695 1349.44 529.792 1353.06C539.4 1359.89 549.591 1365.65 560.55 1370C564.923 1371.74 569.349 1373.48 574.716 1370.33ZM1076.72 1400.24C1082.98 1415.5 1084.05 1417.44 1095.51 1427.13C1137.37 1462.54 1185.73 1479.29 1240.58 1477.01C1278.35 1475.44 1312.8 1463.97 1343.16 1441.36C1369.84 1421.51 1387.71 1395.57 1394.93 1362.79C1409.43 1297.01 1402.07 1233.68 1372.14 1173.38C1346.71 1122.15 1306.47 1085.9 1253.59 1065.01C1199.81 1043.76 1146.57 1044.63 1096.11 1076.36C1093.47 1078.02 1090.88 1079.8 1088.47 1081.78C1086.11 1083.72 1087.77 1090.34 1090.62 1091.96C1093.56 1093.63 1096.45 1093.65 1099.59 1092.87C1107.56 1090.9 1117.15 1090.59 1121.8 1096.42C1128.56 1104.88 1136.34 1104.12 1144.75 1104.07C1155.14 1104.03 1164.77 1107.34 1174.44 1110.47C1181.12 1112.62 1187.55 1116.06 1194.39 1117.2C1212.12 1120.18 1223.74 1131.14 1233.17 1145.14C1240.2 1155.59 1244.73 1167.23 1248.46 1179.25C1263.32 1227.14 1265.3 1276.12 1260.65 1325.55C1259.63 1336.32 1256.61 1347.07 1253.29 1357.45C1241.72 1393.56 1216.09 1412.09 1178.76 1415.28C1153.5 1417.44 1128.82 1414.12 1104.48 1407.37C1095.6 1404.92 1086.62 1402.77 1076.72 1400.24ZM578.296 1080.24C575.333 1076.81 574.148 1074.65 572.332 1073.45C539.542 1051.82 503.045 1043.97 464.786 1049.52C404.148 1058.32 353.94 1086.63 317.619 1136.84C277.602 1192.16 259.738 1254.04 265.413 1322.28C271.51 1395.51 316.993 1449.35 387.949 1468.11C416.488 1475.66 445.208 1475.33 474.051 1470.6C514.632 1463.96 549.532 1445.86 579.266 1417.7C583.173 1414 586.435 1409.49 589.339 1404.94C590.269 1403.48 589.535 1400.15 586.288 1400.24C582.405 1400.36 578.472 1400.57 574.668 1401.3C541.168 1407.68 507.82 1406.11 474.335 1400.66C448.411 1396.44 429.685 1383.02 417.55 1360.04C410.22 1346.15 404.779 1331.5 401.063 1316.29C394.721 1290.29 385.099 1265.75 371.182 1242.8C362.651 1228.74 356.109 1213.62 351.858 1197.68C347.221 1180.31 348.837 1164.14 359.39 1148.54C377.567 1121.66 401.827 1102.83 431.629 1091.02C455.81 1081.44 481.093 1076.59 507.159 1076.1C530.321 1075.68 553.435 1076.12 578.296 1080.24ZM777.727 1065.14C777.727 1062.35 777.649 1059.34 777.737 1056.34C778.344 1036.01 788.941 1022.07 807.976 1017.12C817.99 1014.52 828.058 1015.02 838.131 1017.61C851.891 1021.15 864.452 1027.39 877.11 1033.58C893.96 1041.81 911.036 1049.58 927.994 1057.59C934.565 1060.69 941.201 1061.15 948.502 1060.25C975.655 1056.87 1002.69 1052.95 1029.72 1048.56C1095.77 1037.83 1152.45 1008.04 1203.63 966.325C1213.38 958.373 1221.87 949.286 1228.69 938.604C1235.07 928.632 1235.79 918.014 1232.97 907.058C1230.43 897.178 1224.71 890.381 1213.47 890.029C1204.09 889.735 1194.67 889.623 1185.36 888.63C1174.2 887.44 1166.3 891.037 1159.58 900.373C1144.78 920.93 1125.73 937.039 1103.99 950.069C1082.97 962.674 1060.16 971.022 1036.57 976.64C984.024 989.161 930.609 997.157 876.733 1000.47C836.177 1002.98 795.528 1002.58 754.913 997.524C711.962 992.176 670.02 983.148 630.11 966.697C586.572 948.748 544.557 927.756 513.53 890.401C509.573 885.645 504.554 884.837 498.77 885.376C487.091 886.457 475.378 887.137 463.689 888.174C455.374 888.913 453.533 891.179 452.931 900.217C451.119 927.409 461.902 948.983 482.821 965.64C497.536 977.354 513.701 986.945 530.341 995.714C572.004 1017.67 615.836 1034.13 660.819 1047.85C678.413 1053.21 695.606 1056.87 713.108 1048.09C714.454 1047.41 716.173 1047.51 717.686 1047.12C736.623 1042.2 753.287 1046.18 767.366 1059.92C770.103 1062.61 772.13 1066.26 777.727 1065.14ZM372.19 175.936C372.479 175.936 372.763 175.936 373.047 175.936C373.047 144.639 373.091 113.337 373.018 82.0396C372.998 74.2202 373.302 66.3078 372.23 58.6058C369.115 36.2093 359.419 27.2351 336.605 25.8014C324.118 25.0136 311.557 25.4784 299.036 25.2631C276.329 24.8717 253.627 24.2649 230.92 24.0007C219.931 23.8734 209.104 25.3414 198.37 27.9838C191.926 29.5692 186.51 32.3534 182.901 37.736C174.081 50.9136 162.505 61.4243 150.743 71.7784C137.585 83.3559 131.229 97.8595 131.557 115.363C131.674 121.621 131.351 127.894 131.576 134.143C132.512 160.753 131.914 187.303 130.479 213.908C129.26 236.534 129.941 259.273 130.176 281.963C130.259 289.744 132.35 291.442 139.788 292.435C142.114 292.743 144.48 292.733 146.815 293.003C186.588 297.637 226.586 296.78 266.501 297.592C295.466 298.185 324.451 297.93 353.421 297.632C371.539 297.446 372.073 296.766 372.151 279.253C372.298 244.814 372.19 210.375 372.19 175.936ZM1137.45 1277.64C1133.91 1281.93 1132.02 1284.34 1130.01 1286.66C1107.88 1312.26 1083.67 1313.55 1059.68 1290.05C1053.43 1283.92 1047.11 1279.93 1037.95 1278.09C1022.73 1275.04 1008.12 1268.99 993.201 1264.36C988.656 1262.95 984.156 1262.45 980.018 1266.14C966.381 1278.28 949.574 1285.13 933.591 1293.31C915.374 1302.62 898.813 1314.39 883.055 1327.3C880.239 1329.61 876.356 1332.09 878.437 1336.88C879.945 1340.33 883.559 1339.96 886.453 1340.3C896.673 1341.51 906.971 1340.79 916.75 1338.06C943.585 1330.58 969.461 1334.09 995.037 1343.33C1014.16 1350.24 1033.3 1357.1 1052.36 1364.21C1078.77 1374.07 1105.61 1382.38 1133.18 1388.44C1147.14 1391.51 1161.16 1392.15 1175.2 1390.86C1198.65 1388.72 1216.8 1377.86 1227.14 1356.03C1230.82 1348.26 1233.06 1339.99 1234.38 1331.38C1241.98 1281.82 1237.69 1233.14 1224.19 1185.1C1221.44 1175.28 1217.6 1165.9 1211.81 1157.38C1207.74 1151.39 1202.91 1145.06 1196.01 1144.11C1181.77 1142.15 1169.7 1134.34 1155.92 1131.38C1136.9 1127.29 1123.98 1131.59 1113.37 1147.63C1107.78 1156.07 1103.19 1165.26 1098.98 1174.47C1093.46 1186.57 1088.72 1199.04 1086.9 1212.34C1084.72 1228.29 1087.99 1234.71 1102.72 1238.93C1112.37 1241.7 1121.91 1245.83 1132.54 1245.54C1137.14 1238.77 1136.52 1230.58 1138.59 1223.18C1141.35 1213.31 1144.7 1203.8 1150.1 1195.08C1151.74 1192.44 1153.57 1189.83 1155.72 1187.6C1159.98 1183.19 1167.8 1182.87 1172.97 1186.58C1177.35 1189.72 1178.48 1195.18 1175.64 1201.29C1172.99 1206.95 1169.59 1212.27 1167.2 1218.02C1153.73 1250.47 1161.46 1281.94 1188.23 1304.45C1189.43 1305.46 1190.88 1306.17 1192.02 1307.21C1197.37 1312.12 1198.41 1318.39 1194.88 1323.98C1191.41 1329.49 1184.89 1331.14 1178.42 1327.79C1166.27 1321.51 1156.99 1312.08 1149.95 1300.52C1145.91 1293.9 1142.48 1286.91 1137.45 1277.64ZM1163.98 1021.49C1164.28 1022.95 1164.58 1024.42 1164.89 1025.88C1173.4 1025.88 1182.04 1024.91 1190.37 1026.11C1202.76 1027.88 1212.68 1025.83 1222.32 1016.79C1233.2 1006.6 1247.31 1000.89 1261.64 996.55C1280.47 990.855 1299.81 988.07 1319.45 987.884C1350.9 987.581 1381.8 992.205 1412.39 999.144C1479.21 1014.31 1535.49 1047.75 1582.45 1097.36C1587.41 1102.6 1590.94 1109.77 1599.16 1112.66C1592.29 1072.94 1570.9 1025.21 1544.96 990.957C1503.86 936.711 1449.57 906.71 1381.49 902.042C1342.47 899.37 1303.45 896.733 1264.44 894.115C1260.61 893.86 1256.64 893.195 1252.91 896.699C1253.25 899.316 1253.22 902.502 1254.09 905.404C1258.98 921.708 1254.07 936.29 1246.28 950.28C1241.29 959.225 1234.24 966.613 1227.02 973.816C1213.66 987.141 1198.37 998.013 1182.86 1008.62C1176.58 1012.92 1170.27 1017.2 1163.98 1021.49ZM346.364 667.802C325.278 681.371 320.425 687.889 315.009 706.659C311.694 718.144 311.812 729.863 311.812 741.568C311.812 775.194 312.012 808.82 312.203 842.447C312.238 848.696 312.292 854.984 312.909 861.188C313.57 867.838 317.091 870.965 323.491 871.41C325.827 871.572 328.187 871.557 330.528 871.4C381.274 868.039 432.021 864.697 482.758 861.208C491.097 860.635 492.689 858.242 489.251 850.961C473.742 818.132 465.814 783.126 459.159 747.753C456.877 735.613 456.917 723.007 451.506 710.075C436.217 710.075 420.66 710.495 405.137 709.972C384.217 709.267 367.695 699.882 355.732 682.711C352.647 678.278 349.968 673.561 346.364 667.802ZM1306.63 664.215C1283.81 686.841 1275.9 690.007 1244.95 689.675C1242.6 689.65 1240.26 689.415 1237.92 689.386C1224.78 689.219 1224.62 689.21 1223.24 701.286C1221.64 715.232 1220.1 729.197 1218.96 743.187C1216.01 779.236 1208.17 813.993 1192.83 846.944C1190.65 851.646 1186.43 856.036 1188.57 862.793C1190.25 863.263 1192.26 864.217 1194.33 864.339C1240.3 867.148 1286.27 869.879 1332.25 872.599C1340.86 873.108 1342.71 871.924 1343.74 862.059C1347.87 822.424 1350.74 782.627 1345.72 742.962C1341.94 713.03 1331.76 685.427 1306.63 664.215ZM446.565 420.247C447.544 415.745 448.318 413.504 448.494 411.214C452.304 361.513 464.615 314.171 487.415 269.676C489.525 265.551 491.881 261.094 492.277 256.626C494.701 229.346 496.635 202.003 491.797 174.767C487.615 151.211 473.894 135.357 451.858 126.549C437.897 120.965 423.299 118.426 408.305 118.157C398.697 117.981 397.272 119.277 396.861 128.389C396.685 132.293 396.783 136.213 396.783 140.123C396.778 225.417 396.748 310.711 396.837 396.006C396.841 402.969 395.603 410.108 398.932 417.649C414.206 414.933 429.651 416.195 446.565 420.247ZM418.53 1026.49C401.249 1015.96 382.366 1011.7 362.749 1010.76C338.529 1009.59 314.49 1010.66 290.329 1014.44C223.442 1024.9 165.081 1052.27 115.745 1098.63C72.3188 1139.43 43.7944 1188.62 32.4434 1247.38C30.7539 1256.13 29.2016 1264.91 31.3367 1278.01C35.6753 1270.76 37.9279 1266.87 40.2931 1263.06C50.18 1247.09 60.723 1231.61 73.2541 1217.54C111.582 1174.52 156.898 1140.13 206.176 1110.8C267.108 1074.53 332.623 1049.71 401.733 1034.14C407.566 1032.83 414.142 1033.19 418.53 1026.49ZM1247.73 1031.32C1252.19 1033 1253.61 1033.69 1255.11 1034.06C1261.19 1035.54 1267.28 1036.96 1273.38 1038.33C1361.6 1058.19 1442.34 1094.82 1515.67 1147.47C1561.88 1180.64 1601.71 1220.14 1630.02 1270.18C1631.44 1272.69 1632.98 1275.52 1637.56 1274.52C1634.83 1246.42 1628.54 1219.13 1616.74 1193.38C1579.78 1112.8 1517.32 1060.11 1434.75 1030.78C1414.28 1023.51 1392.36 1019.56 1370.77 1016.37C1343.73 1012.38 1316.38 1009.55 1289.02 1015.29C1275.37 1018.15 1261.75 1020.77 1247.73 1031.32ZM444.209 536.109C444.728 536.109 445.247 536.109 445.766 536.109C445.766 511.085 445.894 486.056 445.708 461.032C445.629 450.698 442.716 446.969 433.079 443.984C429.386 442.839 425.469 442.12 421.605 441.841C393.57 439.81 368.322 458.126 361.006 486.898C357.358 501.24 355.169 515.969 354.542 530.918C353.259 561.564 356.995 591.834 361.04 622.045C362.901 635.947 366.133 649.706 373.028 662.297C378.938 673.086 386.935 681.229 399.295 683.94C413.222 686.998 427.237 686.827 441.202 684.013C446.423 682.961 449.459 679.834 449.199 674.271C448.548 660.207 448.915 645.988 446.829 632.14C443.891 612.645 444.008 593.189 444.19 573.641C444.302 561.129 444.209 548.617 444.209 536.109ZM1226.88 588.976C1226.23 606.181 1225.41 623.376 1225 640.585C1224.42 665.022 1223.3 663.031 1247.59 664.205C1249.94 664.318 1252.3 664.352 1254.64 664.293C1275.59 663.731 1281.84 658.72 1287.25 637.958C1288.23 634.185 1289.24 630.324 1289.44 626.464C1291.74 581.108 1292.94 535.733 1289.86 490.367C1289 477.767 1285.03 465.813 1279.13 454.632C1272.44 441.929 1261.76 434.662 1247.49 433.214C1241.28 432.588 1234.97 432.715 1228.72 432.945C1222.58 433.175 1219.91 435.695 1220.07 441.459C1220.43 453.966 1220.25 466.596 1222.01 478.932C1227.23 515.489 1228.89 552.14 1226.88 588.976ZM963.736 1173.4C972.707 1153.31 982.829 1136.89 995.811 1122.41C998.534 1119.38 996.482 1116.61 993.764 1114.68C991.864 1113.34 989.705 1112.33 987.584 1111.32C938.875 1088.08 887.736 1070.19 840.251 1044.22C831.848 1039.62 822.372 1039.32 812.887 1042.67C805.008 1045.45 802.613 1050.01 807.026 1056.56C813.617 1066.35 821.457 1074.98 830.967 1082.15C844.771 1092.55 859.608 1101.23 874.926 1109.14C906.903 1125.64 939.501 1141.22 963.736 1173.4ZM1067.05 1106.96C1056.34 1105.77 1056.31 1105.71 1050.2 1109.4C1011.92 1132.48 990.689 1167.64 979.215 1209.67C978.608 1211.91 978.3 1214.26 978.153 1216.58C977.536 1226.19 981.492 1233.13 990.498 1236.92C1001.21 1241.41 1012.33 1243.66 1023.15 1244.34C1026.7 1238.96 1023.68 1235.59 1022.5 1232.25C1013.23 1206.11 1017.54 1181.82 1031.42 1158.42C1039.78 1144.32 1048.66 1130.67 1059.48 1118.3C1062.47 1114.87 1066.79 1112.25 1067.05 1106.96ZM1097.46 1119.55C1094.82 1120.9 1091.83 1121.84 1089.6 1123.68C1067.87 1141.62 1053.83 1164.79 1044.21 1190.91C1041.13 1199.24 1041.17 1207.64 1043.26 1216.28C1048.8 1239.14 1062.84 1256.98 1077.67 1274.19C1080.97 1278.02 1086.83 1280.11 1091.92 1281.83C1098.12 1283.92 1107.14 1279.64 1108.83 1272.56C1110.73 1264.62 1102.41 1265.84 1097.86 1264.03C1094.95 1262.88 1091.92 1262.08 1089 1260.96C1064.28 1251.48 1056.2 1237.45 1060.73 1211.75C1061.27 1208.67 1062.34 1205.7 1063.15 1202.68C1070.91 1173.79 1081.14 1146.01 1097.46 1119.55Z" fill="#0C0745"/>
<path fill-rule="evenodd" clip-rule="evenodd" d="M317.619 1096C315.759 1091.13 311.224 1090.93 307.111 1090C314.045 1083.52 323.153 1083.16 335.596 1077.45C329.367 1088.41 323.922 1092.61 317.619 1096Z" fill="#0C0745"/>
<path fill-rule="evenodd" clip-rule="evenodd" d="M1098.03 1460.78C1095.9 1462.93 1093.78 1465.08 1091.65 1467.22C1084.56 1462.94 1082.73 1455.2 1077.5 1447.99C1088.34 1450.89 1088.36 1450.87 1098.03 1460.78Z" fill="#0C0745"/>
<path fill-rule="evenodd" clip-rule="evenodd" d="M1351.92 1089.57C1350.08 1091.46 1348.23 1093.35 1346.39 1095.24C1341.15 1093.27 1337.58 1089.67 1335.52 1083.67C1341.89 1083.85 1347.53 1084.81 1351.92 1089.57Z" fill="#0C0745"/>
<path fill-rule="evenodd" clip-rule="evenodd" d="M1176.88 381.311C1179.27 381.243 1181.66 381.174 1184.06 381.106C1188.74 386.968 1186.98 393.584 1186.26 400.072L1186.49 399.96C1181.77 394.533 1177.82 388.695 1176.88 381.311Z" fill="#0C0745"/>
<path fill-rule="evenodd" clip-rule="evenodd" d="M1055.05 1071.67C1055.04 1070.05 1055.04 1068.42 1055.03 1066.8C1056.56 1063.64 1059.4 1063.1 1062.43 1063.36C1064.43 1063.53 1065.2 1064.84 1064.12 1065.64C1061.2 1067.8 1058.08 1069.68 1055.05 1071.67Z" fill="#0C0745"/>
<path fill-rule="evenodd" clip-rule="evenodd" d="M574.408 1455.68C575.833 1454.11 577.17 1452.44 578.698 1450.98C580.167 1449.57 581.969 1447.81 584.026 1449.4C586.165 1451.04 584.897 1453.37 583.82 1455.08C582.699 1456.86 581.004 1458.28 579.56 1459.87C577.846 1458.47 576.127 1457.08 574.408 1455.68Z" fill="#0C0745"/>
<path fill-rule="evenodd" clip-rule="evenodd" d="M472.268 437.427C473.953 437.54 475.637 437.652 477.322 437.765C477.479 440.994 476.627 445.57 473.889 445.266C470.873 444.934 471.069 440.52 472.268 437.427Z" fill="#0C0745"/>
<path fill-rule="evenodd" clip-rule="evenodd" d="M1186.26 400.077L1187.04 400.439L1186.5 399.95L1186.26 400.077Z" fill="#0C0745"/>
<path fill-rule="evenodd" clip-rule="evenodd" d="M815.791 780.092C784.417 781.717 753.409 779.104 722.985 770.854C706.992 766.518 691.929 760.059 678.32 750.777C653.018 733.523 643.846 703.434 655.129 676.683C661.935 660.535 673.923 649.633 690.739 645.395C705.851 641.593 721.413 639.039 737.157 640.84C751.882 642.523 766.66 644.138 781.204 646.893C801.433 650.724 821.599 651.257 841.75 647.539C864.236 643.389 886.855 643.878 909.493 644.578C923.729 645.014 937.313 648.649 949.908 655.338C966.288 664.034 974.519 679.541 972.492 697.973C969.686 723.541 957.909 743.672 935.814 757.51C913.396 771.544 888.432 777.592 862.615 779.838C847.121 781.193 831.407 780.092 815.791 780.092ZM814.616 756.595C819.381 756.595 827.235 757.025 835.036 756.511C860.059 754.867 884.916 752.171 908.592 742.977C922.95 737.403 934.629 728.537 942.528 715.345C953.565 696.907 947.16 679.379 927.132 672.073C918.979 669.103 910.536 667.939 901.839 667.474C878.946 666.25 856.367 669.46 834.199 673.835C820.713 676.497 808.235 676.614 794.906 674.202C771.068 669.881 747.146 665.624 722.667 666.774C713.167 667.219 704.063 668.369 695.401 672.685C671.69 684.512 668.36 701.839 686.087 721.446C698.089 734.722 713.426 742.336 730.281 746.828C756.852 753.918 783.937 757.686 814.616 756.595Z" fill="#0C0745"/>
<path fill-rule="evenodd" clip-rule="evenodd" d="M700.484 543.518C695.704 537.078 689.235 537.123 683.271 536.335C674.648 535.19 666.617 532.425 659.056 528.31C651.324 524.106 648.958 517.603 652.425 511.027C655.584 505.042 661.225 502.464 668.154 505.38C684.828 512.407 702.315 515.524 720.052 518.269C731.535 520.045 742.964 523.02 752.014 531.295C758.708 537.416 758.208 545.828 750.775 551.005C749.502 551.89 748.199 552.805 746.784 553.397C724.542 562.685 702.349 572.095 679.985 581.079C672.581 584.054 665.608 580.858 662.337 574.16C659.707 568.782 661.96 562.753 669.006 558.79C675.764 554.988 682.977 551.983 689.985 548.617C693.408 546.973 696.821 545.299 700.484 543.518Z" fill="#0C0745"/>
<path fill-rule="evenodd" clip-rule="evenodd" d="M961.21 553.241C946.862 553.25 933.792 542.348 933.449 530.081C933.057 516.052 945.97 503.618 960.656 503.887C972.046 504.098 982.653 516.688 982.54 529.87C982.423 542.744 972.849 553.231 961.21 553.241Z" fill="#0C0745"/>
<path fill-rule="evenodd" clip-rule="evenodd" d="M851.186 580.022C851.754 588.32 844.536 596.703 835.922 597.75C823.984 599.198 811.585 591.687 810.581 582.405C809.435 571.791 817.358 560.36 826.221 559.837C837.533 559.171 850.471 569.633 851.186 580.022Z" fill="#0C0745"/>
<path fill-rule="evenodd" clip-rule="evenodd" d="M246.884 250.407C225.651 250.877 206.734 244.545 190.315 231.289C167.04 212.504 160.189 185.596 171.197 157.709C175.834 145.96 182.249 135.22 190.814 126.006C212.992 102.141 239.034 93.5192 271.3 103.854C298.614 112.608 317.414 128.981 327.325 155.869C333.662 173.069 332.658 189.633 323.794 205.536C307.047 235.605 280.589 249.316 246.884 250.407ZM298.184 159.485C297.664 151.636 293.58 147.105 285.701 146.112C278.826 131.75 267.441 127.219 252.324 130.811C250.003 124.797 245.958 122.566 239.484 124.259C219.177 129.563 205.808 143.024 196.911 161.139C183.645 188.145 195.819 205.257 213.154 217.5C226.194 226.709 242.099 228.534 257.911 224.561C273.175 220.724 287.131 214.187 298.125 202.438C302.61 196.116 305.098 188.943 306.058 181.397C307.13 172.942 307.008 164.55 298.184 159.485Z" fill="#0C0745"/>
<path fill-rule="evenodd" clip-rule="evenodd" d="M559.615 353.758C564.957 355.48 565.535 360.579 567.376 364.758C597.223 432.446 652.122 466.557 722.285 480.258C764.511 488.508 801.306 477.606 832.651 448.555C838.914 442.746 845.173 440.241 853.644 441.083C874.045 443.104 894.264 440.941 914.366 437.256C930.663 434.266 946.632 430.454 959.491 419.107C965.416 413.881 971.307 412.805 978.784 416.093C1007.4 428.659 1036.64 426.907 1066.12 419.293C1095.54 411.689 1116.43 394.92 1125.62 365.183C1126.08 363.71 1126.67 362.252 1127.42 360.907C1127.66 360.466 1128.59 360.403 1129.21 360.168C1133.74 360.691 1135.56 364.493 1137.65 367.61C1178.41 428.145 1197.75 494.708 1190.56 567.573C1184.97 624.139 1163.31 674.956 1127.9 719.499C1071.51 790.393 997.819 833.111 909.542 851.25C866.352 860.122 822.95 861.56 778.868 856.809C727.75 851.299 678.737 839.223 632.378 817.335C588.81 796.764 549.326 770.286 519.176 731.781C490.377 694.994 474.697 653.269 471.696 606.612C466.897 532.029 489.373 464.678 525.865 401.046C533.25 388.167 541.692 375.89 549.835 363.461C552.372 359.595 554.835 355.451 559.615 353.758ZM815.791 780.092C831.402 780.092 847.117 781.194 862.62 779.843C888.437 777.602 913.401 771.554 935.819 757.515C957.919 743.672 969.691 723.546 972.497 697.979C974.524 679.541 966.288 664.034 949.912 655.344C937.318 648.655 923.734 645.019 909.498 644.584C886.86 643.889 864.241 643.394 841.755 647.544C821.604 651.258 801.438 650.725 781.209 646.898C766.665 644.143 751.887 642.528 737.162 640.845C721.418 639.044 705.856 641.594 690.744 645.401C673.923 649.638 661.94 660.54 655.134 676.688C643.856 703.44 653.023 733.528 678.325 750.782C691.934 760.059 706.992 766.519 722.99 770.859C753.409 779.104 784.417 781.717 815.791 780.092ZM700.484 543.518C696.821 545.299 693.403 546.973 689.975 548.617C682.968 551.983 675.759 554.988 668.997 558.79C661.95 562.754 659.702 568.782 662.327 574.16C665.598 580.859 672.576 584.054 679.976 581.079C702.34 572.095 724.532 562.69 746.774 553.398C748.194 552.806 749.497 551.89 750.765 551.005C758.199 545.828 758.703 537.416 752.004 531.295C742.955 523.02 731.525 520.045 720.042 518.269C702.305 515.524 684.823 512.407 668.145 505.38C661.211 502.464 655.569 505.042 652.416 511.027C648.949 517.603 651.309 524.102 659.046 528.31C666.607 532.425 674.638 535.19 683.261 536.335C689.236 537.123 695.704 537.079 700.484 543.518ZM961.21 553.241C972.854 553.231 982.423 542.745 982.536 529.876C982.648 516.693 972.042 504.103 960.651 503.893C945.966 503.618 933.052 516.052 933.444 530.086C933.792 542.349 946.862 553.251 961.21 553.241ZM851.186 580.022C850.471 569.633 837.533 559.167 826.221 559.837C817.353 560.361 809.43 571.791 810.581 582.405C811.585 591.687 823.984 599.198 835.922 597.75C844.531 596.708 851.754 588.326 851.186 580.022Z" fill="#B1AAD2"/>
<path fill-rule="evenodd" clip-rule="evenodd" d="M749.898 456.271C714.308 457.392 684.97 446.372 657.141 429.153C635.517 415.77 616.913 399.73 603.197 378.165C596.43 367.527 591.719 356.111 587.424 344.304C582.581 330.994 585.661 319.828 593.751 309.224C594.696 307.986 595.813 306.866 596.939 305.779C641.266 263.115 689.539 226.694 749.913 209.499C765.715 204.998 781.586 201.352 798.309 202.448C808.407 203.109 818.416 202.605 828.44 199.312C834.879 197.198 842.416 197.633 849.394 198.049C877.36 199.723 905.302 201.186 931.51 213.267C942.009 218.107 953.575 220.343 964.348 225.148C993.705 238.228 1021.43 253.803 1046.7 273.64C1064.01 287.219 1079.21 303.117 1093.61 319.554C1108.05 336.044 1107.8 370.874 1078.19 385.437C1051.94 398.335 1023.96 405.856 994.464 394.577C987.535 391.925 982.962 386.914 985.782 380.411C991.521 367.175 985.983 357.79 977.83 348.683C968.398 338.138 956.802 332.633 942.356 334.287C940.809 334.468 939.223 334.586 937.729 335.002C933.723 336.122 930.212 338.647 929.492 342.581C927.534 353.317 925.624 364.229 932.861 374.118C935.163 377.26 937.043 380.715 939.129 384.013C948.434 398.736 947.723 399.735 930.545 405.974C910.292 413.328 889.519 415.193 868.271 413.759C860.774 413.25 858.061 411.302 858.012 403.816C857.934 392.537 854.624 382.187 850.471 372.122C845.173 359.297 836.358 350.181 822.035 346.56C808.221 343.071 782.688 350.318 776.347 362.546C769.432 375.89 770.877 390.374 779.53 402.514C785.798 411.302 794.578 418.319 802.31 426.051C803.946 427.685 806.223 428.742 807.657 430.508C809.185 432.392 809.112 434.756 807.701 436.967C803.715 443.231 797.565 446.607 791.032 449.396C777.115 455.347 762.581 457.646 749.898 456.271Z" fill="#514F9D"/>
<path fill-rule="evenodd" clip-rule="evenodd" d="M814.616 756.595C783.937 757.686 756.852 753.918 730.277 746.833C713.426 742.341 698.084 734.727 686.082 721.451C668.35 701.844 671.685 684.517 695.396 672.69C704.059 668.369 713.162 667.224 722.662 666.779C747.141 665.629 771.063 669.886 794.901 674.207C808.235 676.624 820.713 676.502 834.194 673.84C856.357 669.465 878.942 666.26 901.835 667.479C910.531 667.944 918.974 669.108 927.127 672.078C947.155 679.384 953.556 696.912 942.523 715.349C934.629 728.542 922.945 737.408 908.587 742.982C884.911 752.171 860.059 754.872 835.031 756.516C827.235 757.025 819.381 756.595 814.616 756.595Z" fill="#B1AAD2"/>
<path fill-rule="evenodd" clip-rule="evenodd" d="M777.727 1065.14C772.13 1066.26 770.103 1062.6 767.365 1059.93C753.287 1046.18 736.623 1042.21 717.686 1047.13C716.173 1047.52 714.454 1047.43 713.108 1048.1C695.606 1056.88 678.413 1053.22 660.819 1047.86C615.836 1034.13 572.003 1017.68 530.341 995.723C513.701 986.955 497.536 977.359 482.821 965.649C461.902 948.993 451.114 927.418 452.93 900.226C453.533 891.189 455.374 888.923 463.689 888.184C475.373 887.147 487.091 886.462 498.77 885.385C504.558 884.852 509.578 885.659 513.53 890.411C544.556 927.766 586.572 948.758 630.11 966.706C670.015 983.152 711.962 992.185 754.913 997.534C795.527 1002.59 836.177 1002.98 876.733 1000.48C930.608 997.167 984.019 989.166 1036.57 976.649C1060.15 971.037 1082.97 962.684 1103.99 950.079C1125.73 937.048 1144.78 920.94 1159.58 900.383C1166.3 891.047 1174.2 887.445 1185.36 888.639C1194.67 889.632 1204.09 889.75 1213.47 890.039C1224.72 890.391 1230.43 897.193 1232.97 907.067C1235.79 918.023 1235.07 928.642 1228.69 938.614C1221.87 949.296 1213.38 958.383 1203.63 966.334C1152.45 1008.04 1095.77 1037.83 1029.72 1048.57C1002.69 1052.95 975.655 1056.88 948.502 1060.26C941.205 1061.16 934.565 1060.7 927.994 1057.6C911.036 1049.59 893.965 1041.81 877.11 1033.59C864.451 1027.4 851.891 1021.16 838.13 1017.62C828.053 1015.03 817.99 1014.53 807.975 1017.13C788.941 1022.08 778.344 1036.02 777.737 1056.35C777.649 1059.34 777.727 1062.35 777.727 1065.14Z" fill="#514F9D"/>
<path fill-rule="evenodd" clip-rule="evenodd" d="M418.53 1026.49C414.142 1033.19 407.566 1032.83 401.738 1034.14C332.628 1049.71 267.113 1074.53 206.18 1110.8C156.903 1140.13 111.587 1174.52 73.2589 1217.54C60.7277 1231.61 50.1847 1247.09 40.2979 1263.06C37.9327 1266.87 35.6801 1270.76 31.3414 1278.01C29.2064 1264.91 30.7587 1256.13 32.4481 1247.38C43.7943 1188.62 72.3236 1139.43 115.749 1098.63C165.086 1052.27 223.447 1024.9 290.334 1014.44C314.495 1010.66 338.534 1009.59 362.754 1010.76C382.361 1011.71 401.249 1015.95 418.53 1026.49Z" fill="#514F9D"/>
<path fill-rule="evenodd" clip-rule="evenodd" d="M1247.73 1031.32C1261.74 1020.77 1275.37 1018.15 1289.01 1015.29C1316.38 1009.55 1343.73 1012.37 1370.77 1016.37C1392.36 1019.56 1414.28 1023.51 1434.74 1030.78C1517.31 1060.11 1579.78 1112.8 1616.73 1193.38C1628.54 1219.13 1634.83 1246.42 1637.56 1274.52C1632.97 1275.52 1631.43 1272.69 1630.01 1270.17C1601.71 1220.13 1561.88 1180.64 1515.66 1147.46C1442.34 1094.82 1361.6 1058.18 1273.38 1038.33C1267.28 1036.95 1261.18 1035.54 1255.11 1034.05C1253.61 1033.69 1252.19 1033 1247.73 1031.32Z" fill="#514F9D"/>
<path fill-rule="evenodd" clip-rule="evenodd" d="M574.716 1370.33C569.349 1373.48 564.923 1371.74 560.55 1370.01C549.59 1365.65 539.4 1359.89 529.792 1353.07C524.69 1349.45 519.587 1345.83 514.387 1342.36C509.945 1339.41 505.474 1339.62 501.557 1343.31C496.444 1348.12 495.431 1355.09 499.397 1360.19C501.753 1363.22 505.014 1365.53 507.702 1368.32C509.695 1370.39 513.471 1371.36 512.168 1376.93C495.538 1378.6 478.82 1377.44 462.7 1371.63C451.035 1367.44 443.401 1358.27 438.759 1347.13C433.661 1334.89 428.803 1322.46 425.18 1309.73C416.135 1277.99 403.168 1248.21 387.038 1219.29C364.972 1179.73 367.494 1174.62 400.039 1139.87C419.294 1119.32 445.517 1110.09 472.792 1104.45C510.254 1096.71 547.495 1099.22 584.633 1106.79C592.296 1108.35 599.95 1109.99 607.673 1111.22C630.972 1114.94 652.847 1110.94 672.914 1098.33C682.85 1092.1 692.462 1085.34 702.447 1079.18C713.446 1072.4 725.453 1069.5 738.395 1071.51C746.461 1072.75 750.98 1077.93 750.647 1085.97C750.026 1100.96 742.533 1112.73 732.103 1122.7C723.572 1130.86 713.387 1136.78 702.922 1142.2C692.507 1147.59 681.866 1152.65 671.9 1158.78C663.287 1164.08 654.825 1169.98 647.445 1176.84C629.273 1193.74 626.673 1214.48 635.076 1237.01C640.962 1252.79 651.51 1265.54 663.967 1276.37C678.115 1288.67 693.089 1300.04 707.986 1311.45C721.026 1321.43 734.659 1330.64 747.646 1340.69C760.716 1350.8 772.14 1362.59 780.489 1377.05C786.508 1387.47 789.544 1398.67 788.804 1410.7C788.231 1420.1 781.483 1425.4 772.835 1422.45C764.765 1419.69 756.818 1416.08 749.511 1411.68C734.062 1402.38 720.341 1390.72 706.766 1378.86C680.754 1356.15 651.975 1337.3 622.432 1319.58C617.765 1316.79 612.692 1314.55 607.599 1312.61C601.478 1310.27 596.292 1312.23 593.486 1317.26C590.671 1322.3 591.028 1328.93 595.151 1332.39C598.682 1335.35 602.869 1337.62 606.977 1339.8C620.145 1346.77 632.666 1354.74 644.419 1363.86C645.408 1364.63 645.736 1366.58 645.868 1368.03C646.162 1371.21 643.454 1371.93 641.329 1372.02C624.969 1372.74 610.498 1367.73 598.432 1356.64C590.95 1349.77 583.972 1342.34 576.719 1335.21C571.122 1329.7 565.236 1324.47 557.856 1321.52C553.204 1319.66 548.606 1320.3 545.027 1324.28C541.373 1328.35 540.384 1335.64 543.523 1339.47C545.947 1342.43 549.164 1344.76 552.152 1347.23C560.486 1354.09 569.227 1360.56 574.716 1370.33Z" fill="#B1AAD2"/>
<path fill-rule="evenodd" clip-rule="evenodd" d="M1137.45 1277.64C1142.48 1286.91 1145.92 1293.9 1149.96 1300.53C1157 1312.09 1166.28 1321.52 1178.43 1327.79C1184.9 1331.15 1191.42 1329.5 1194.89 1323.98C1198.42 1318.39 1197.38 1312.13 1192.03 1307.22C1190.89 1306.17 1189.44 1305.47 1188.24 1304.46C1161.47 1281.94 1153.74 1250.48 1167.21 1218.03C1169.6 1212.28 1173 1206.95 1175.64 1201.29C1178.49 1195.18 1177.36 1189.73 1172.98 1186.59C1167.8 1182.87 1159.99 1183.19 1155.73 1187.6C1153.58 1189.84 1151.75 1192.44 1150.11 1195.09C1144.71 1203.8 1141.37 1213.32 1138.6 1223.18C1136.53 1230.59 1137.15 1238.78 1132.55 1245.54C1121.92 1245.84 1112.38 1241.71 1102.73 1238.94C1087.99 1234.72 1084.73 1228.29 1086.91 1212.34C1088.73 1199.04 1093.47 1186.57 1098.99 1174.48C1103.19 1165.26 1107.79 1156.07 1113.38 1147.63C1123.99 1131.59 1136.92 1127.29 1155.93 1131.38C1169.7 1134.34 1181.78 1142.15 1196.02 1144.12C1202.92 1145.06 1207.75 1151.4 1211.82 1157.39C1217.62 1165.91 1221.45 1175.29 1224.2 1185.1C1237.7 1233.14 1241.99 1281.83 1234.39 1331.38C1233.07 1340 1230.82 1348.26 1227.15 1356.03C1216.81 1377.87 1198.66 1388.73 1175.21 1390.87C1161.17 1392.16 1147.15 1391.52 1133.19 1388.45C1105.62 1382.38 1078.78 1374.07 1052.37 1364.22C1033.31 1357.11 1014.17 1350.25 995.047 1343.33C969.465 1334.1 943.595 1330.59 916.76 1338.07C906.986 1340.79 896.683 1341.52 886.463 1340.31C883.569 1339.97 879.955 1340.34 878.447 1336.88C876.366 1332.1 880.249 1329.61 883.064 1327.31C898.828 1314.39 915.389 1302.62 933.601 1293.31C949.589 1285.14 966.39 1278.29 980.028 1266.15C984.171 1262.46 988.671 1262.96 993.211 1264.37C1008.13 1268.99 1022.73 1275.05 1037.96 1278.09C1047.12 1279.93 1053.43 1283.93 1059.69 1290.05C1083.68 1313.56 1107.89 1312.27 1130.02 1286.66C1132.01 1284.34 1133.91 1281.93 1137.45 1277.64Z" fill="#B1AAD2"/>
<path fill-rule="evenodd" clip-rule="evenodd" d="M444.209 536.109C444.209 548.617 444.307 561.129 444.19 573.636C444.008 593.184 443.891 612.64 446.829 632.135C448.915 645.988 448.548 660.207 449.199 674.266C449.459 679.829 446.423 682.956 441.202 684.008C427.236 686.822 413.222 686.988 399.295 683.935C386.935 681.224 378.933 673.077 373.028 662.292C366.133 649.702 362.901 635.942 361.04 622.04C356.995 591.829 353.259 561.559 354.542 530.913C355.164 515.964 357.358 501.235 361.006 486.893C368.322 458.121 393.57 439.805 421.605 441.836C425.469 442.115 429.386 442.834 433.078 443.979C442.716 446.964 445.629 450.693 445.708 461.027C445.894 486.051 445.766 511.08 445.766 536.105C445.247 536.109 444.728 536.109 444.209 536.109Z" fill="#B1AAD2"/>
<path fill-rule="evenodd" clip-rule="evenodd" d="M1226.88 588.976C1228.88 552.14 1227.23 515.489 1222.01 478.932C1220.26 466.596 1220.44 453.966 1220.08 441.459C1219.92 435.695 1222.59 433.175 1228.73 432.945C1234.97 432.715 1241.29 432.583 1247.49 433.214C1261.77 434.662 1272.45 441.929 1279.14 454.632C1285.03 465.818 1289.01 477.772 1289.86 490.367C1292.94 535.728 1291.74 581.103 1289.44 626.464C1289.25 630.324 1288.24 634.185 1287.26 637.958C1281.84 658.72 1275.59 663.731 1254.64 664.293C1252.3 664.357 1249.94 664.318 1247.6 664.205C1223.31 663.031 1224.43 665.022 1225.01 640.585C1225.41 623.376 1226.24 606.176 1226.88 588.976Z" fill="#B1AAD2"/>
<path fill-rule="evenodd" clip-rule="evenodd" d="M963.736 1173.4C939.501 1141.22 906.903 1125.64 874.921 1109.14C859.604 1101.24 844.771 1092.55 830.962 1082.15C821.457 1074.98 813.612 1066.35 807.021 1056.56C802.613 1050.01 805.003 1045.45 812.882 1042.67C822.367 1039.32 831.843 1039.62 840.246 1044.22C887.731 1070.19 938.87 1088.08 987.579 1111.32C989.7 1112.32 991.859 1113.33 993.759 1114.68C996.477 1116.62 998.529 1119.38 995.806 1122.41C982.834 1136.89 972.707 1153.31 963.736 1173.4Z" fill="#B1AAD2"/>
<path fill-rule="evenodd" clip-rule="evenodd" d="M1067.05 1106.96C1066.79 1112.25 1062.47 1114.87 1059.48 1118.3C1048.67 1130.67 1039.78 1144.32 1031.42 1158.42C1017.55 1181.82 1013.24 1206.11 1022.5 1232.25C1023.68 1235.59 1026.7 1238.96 1023.15 1244.34C1012.33 1243.66 1001.21 1241.41 990.503 1236.92C981.492 1233.13 977.541 1226.19 978.158 1216.58C978.304 1214.26 978.613 1211.91 979.22 1209.67C990.694 1167.64 1011.93 1132.48 1050.21 1109.4C1056.31 1105.71 1056.34 1105.77 1067.05 1106.96Z" fill="#B1AAD2"/>
<path fill-rule="evenodd" clip-rule="evenodd" d="M1097.46 1119.55C1081.14 1146.01 1070.91 1173.79 1063.15 1202.68C1062.34 1205.7 1061.27 1208.67 1060.73 1211.75C1056.2 1237.45 1064.28 1251.48 1089 1260.96C1091.92 1262.08 1094.95 1262.88 1097.86 1264.03C1102.41 1265.84 1110.73 1264.62 1108.83 1272.56C1107.14 1279.64 1098.12 1283.92 1091.92 1281.83C1086.83 1280.11 1080.97 1278.03 1077.67 1274.19C1062.84 1256.98 1048.8 1239.14 1043.26 1216.28C1041.17 1207.64 1041.13 1199.24 1044.21 1190.91C1053.83 1164.79 1067.87 1141.62 1089.6 1123.68C1091.83 1121.84 1094.82 1120.91 1097.46 1119.55Z" fill="#B1AAD2"/>
<path fill-rule="evenodd" clip-rule="evenodd" d="M298.12 202.433C287.126 214.177 273.17 220.715 257.906 224.556C242.094 228.534 226.184 226.704 213.149 217.495C195.814 205.252 183.64 188.14 196.906 161.134C205.803 143.019 219.172 129.558 239.479 124.254C245.953 122.561 249.998 124.792 252.319 130.806C250.375 133.189 248.362 135.523 246.497 137.97C235.444 152.429 248.098 173.211 265.957 170.945C269.586 170.485 273.253 170.373 278.219 170.001C278.219 174.42 278.052 178.089 278.248 181.74C278.924 194.291 284.879 201.885 298.12 202.433Z" fill="#514F9D"/>
<path fill-rule="evenodd" clip-rule="evenodd" d="M298.12 202.433C284.879 201.88 278.924 194.286 278.248 181.739C278.052 178.084 278.219 174.414 278.219 170.001C273.253 170.372 269.581 170.49 265.957 170.945C248.103 173.211 235.444 152.429 246.497 137.969C248.362 135.523 250.375 133.189 252.319 130.806C267.436 127.214 278.821 131.745 285.696 146.107C285.422 151.763 282.509 157.391 285.687 163.781C289.883 162.333 294.031 160.909 298.179 159.48C307.008 164.549 307.125 172.937 306.048 181.392C305.093 188.942 302.605 196.111 298.12 202.433Z" fill="#E7EBEF"/>
<path fill-rule="evenodd" clip-rule="evenodd" d="M298.183 159.485C294.036 160.914 289.888 162.338 285.691 163.786C282.513 157.396 285.427 151.768 285.701 146.112C293.58 147.105 297.66 151.631 298.183 159.485Z" fill="#3E485A"/>
<path fill-rule="evenodd" clip-rule="evenodd" d="M579.564 1459.87C556.897 1496.88 524.656 1523.59 487.277 1544.43C455.634 1562.07 421.576 1573.52 386.137 1580.87C322.374 1594.11 258.705 1594.27 195.329 1578.67C160.845 1570.18 128.721 1556.17 99.81 1535.24C60.292 1506.63 38.3784 1467.48 29.9557 1420C21.6751 1373.32 30.9253 1329.92 53.6225 1288.86C61.9717 1273.75 71.408 1259.37 82.4358 1246.12C142.922 1173.4 218.888 1122.88 307.111 1090C311.224 1090.93 315.759 1091.13 317.619 1096C284.247 1132.5 261.099 1174.49 249.077 1222.57C237.883 1267.34 236.15 1312.29 246.418 1357.4C260.566 1419.57 298.149 1462.31 357.519 1484.02C428.701 1510.05 497.522 1503.09 562.318 1462.66C566.264 1460.2 570.378 1458 574.413 1455.68C576.127 1457.08 577.846 1458.47 579.564 1459.87Z" fill="#E7E1EE"/>
<path fill-rule="evenodd" clip-rule="evenodd" d="M1098.03 1460.78C1134.46 1487.62 1176.2 1499.66 1220.56 1502.5C1268.03 1505.54 1312.04 1493.63 1351.43 1466.55C1383.44 1444.53 1405.44 1414.78 1416.79 1377.63C1433.77 1322.08 1431.2 1266.68 1414.22 1211.59C1400.65 1167.55 1377.78 1128.91 1346.39 1095.24C1348.23 1093.35 1350.08 1091.46 1351.92 1089.57C1412.23 1110.96 1466.5 1143.05 1516.58 1182.5C1533.19 1195.58 1549.26 1209.31 1563.68 1224.81C1599.01 1262.77 1623.89 1306.26 1634.32 1357.57C1651.42 1441.78 1614.62 1508.86 1554.81 1548.49C1524.32 1568.69 1490.48 1580.84 1454.83 1587.06C1382.8 1599.63 1311.34 1596.17 1241.44 1574.03C1185.05 1556.17 1136.61 1525.76 1099.5 1478.85C1096.61 1475.2 1094.26 1471.11 1091.66 1467.23C1093.78 1465.07 1095.9 1462.93 1098.03 1460.78Z" fill="#E7E1EE"/>
<path fill-rule="evenodd" clip-rule="evenodd" d="M1199.75 644.079C1201.34 678.425 1197.62 707.119 1194.37 735.789C1192.44 752.832 1191.38 769.978 1187.17 786.82C1176.09 831.06 1154.98 869.556 1123.95 902.888C1105.95 922.232 1084.33 935.649 1059.68 944.662C1034.56 953.847 1008.38 958.608 982.129 962.66C951.998 967.308 921.76 971.492 891.443 974.663C820.742 982.061 750.794 977.501 682.086 958.657C641.838 947.618 604.308 930.535 569.345 907.542C546.515 892.529 529.205 872.947 515.963 849.386C498.163 817.716 483.037 764.845 482.121 731.042C484.618 730.445 486.494 731.434 487.929 733.406C529.42 790.461 585.989 826.749 651.054 851.049C717.877 876.015 787.198 887.529 858.296 882.831C994.988 873.803 1100.69 811.37 1173.24 694.612C1182.22 680.157 1189.15 664.43 1199.75 644.079Z" fill="#E7E1EE"/>
<path fill-rule="evenodd" clip-rule="evenodd" d="M1076.72 1400.24C1086.62 1402.78 1095.6 1404.92 1104.49 1407.38C1128.83 1414.12 1153.51 1417.45 1178.77 1415.29C1216.1 1412.09 1241.72 1393.57 1253.29 1357.45C1256.62 1347.08 1259.64 1336.33 1260.66 1325.55C1265.3 1276.12 1263.33 1227.14 1248.47 1179.26C1244.74 1167.23 1240.21 1155.59 1233.18 1145.15C1223.75 1131.15 1212.13 1120.18 1194.4 1117.21C1187.56 1116.06 1181.13 1112.63 1174.45 1110.47C1164.78 1107.34 1155.15 1104.04 1144.76 1104.08C1136.35 1104.12 1128.57 1104.88 1121.81 1096.43C1117.16 1090.6 1107.57 1090.91 1099.6 1092.88C1096.46 1093.65 1093.57 1093.63 1090.63 1091.96C1087.78 1090.34 1086.12 1083.73 1088.48 1081.79C1090.88 1079.8 1093.48 1078.02 1096.12 1076.36C1146.59 1044.64 1199.82 1043.77 1253.6 1065.02C1306.48 1085.91 1346.72 1122.16 1372.15 1173.38C1402.08 1233.68 1409.44 1297.01 1394.94 1362.8C1387.71 1395.57 1369.85 1421.51 1343.17 1441.37C1312.81 1463.97 1278.36 1475.45 1240.59 1477.02C1185.74 1479.3 1137.38 1462.55 1095.52 1427.14C1084.05 1417.44 1082.98 1415.5 1076.72 1400.24Z" fill="#E7E1EE"/>
<path fill-rule="evenodd" clip-rule="evenodd" d="M472.268 437.427C472.724 379.329 486.102 324.51 514.318 273.562C536.393 233.701 562.959 197.114 595.146 164.75C628.71 131.006 668.595 110.597 716.11 103.09C782.987 92.5307 850.015 91.7184 917.279 95.2562C937.562 96.323 957.64 100.091 977.257 105.576C1022.46 118.211 1058.8 144.389 1088.7 179.875C1131.18 230.325 1159.15 288.349 1176.97 351.501C1179.72 361.259 1181.72 371.231 1184.06 381.106C1181.66 381.174 1179.27 381.243 1176.88 381.311C1145.37 329.085 1104.82 285.08 1055.92 248.709C1016.02 219.031 972.384 196.752 924.6 182.704C907.246 177.605 889.622 174.229 871.508 174.229C846.47 174.229 821.383 173.656 796.399 174.943C767.292 176.445 739.424 184.318 712.54 195.553C673.874 211.716 639.547 234.68 608.373 262.41C556.951 308.152 515.371 361.489 485.167 423.481C482.792 428.36 479.952 433.008 477.322 437.765C475.642 437.652 473.958 437.54 472.268 437.427Z" fill="#E7E1EE"/>
<path fill-rule="evenodd" clip-rule="evenodd" d="M578.296 1080.24C553.434 1076.12 530.321 1075.68 507.169 1076.11C481.102 1076.59 455.82 1081.45 431.639 1091.03C401.836 1102.84 377.577 1121.67 359.4 1148.54C348.852 1164.14 347.231 1180.31 351.868 1197.69C356.124 1213.62 362.666 1228.74 371.191 1242.81C385.103 1265.75 394.726 1290.3 401.072 1316.29C404.784 1331.51 410.229 1346.16 417.56 1360.04C429.695 1383.03 448.415 1396.44 474.345 1400.67C507.825 1406.11 541.177 1407.69 574.677 1401.31C578.482 1400.58 582.414 1400.37 586.298 1400.25C589.544 1400.15 590.279 1403.49 589.348 1404.95C586.444 1409.5 583.183 1414.01 579.275 1417.71C549.536 1445.86 514.641 1463.96 474.061 1470.61C445.213 1475.34 416.497 1475.67 387.958 1468.12C317.002 1449.36 271.52 1395.51 265.423 1322.28C259.743 1254.04 277.607 1192.16 317.629 1136.85C353.949 1086.63 404.157 1058.33 464.796 1049.52C503.055 1043.97 539.557 1051.83 572.341 1073.45C574.148 1074.65 575.333 1076.81 578.296 1080.24Z" fill="#E7E1EE"/>
<path fill-rule="evenodd" clip-rule="evenodd" d="M372.19 175.936C372.19 210.375 372.293 244.809 372.146 279.248C372.068 296.761 371.534 297.441 353.416 297.627C324.441 297.93 295.456 298.18 266.496 297.588C226.581 296.775 186.583 297.627 146.811 292.998C144.48 292.729 142.109 292.739 139.783 292.43C132.345 291.437 130.254 289.739 130.171 281.959C129.936 259.274 129.25 236.53 130.474 213.903C131.909 187.299 132.512 160.748 131.571 134.138C131.351 127.885 131.669 121.616 131.552 115.358C131.224 97.8548 137.58 83.3511 150.738 71.7737C162.5 61.4196 174.076 50.9088 182.896 37.7313C186.5 32.3487 191.921 29.5693 198.365 27.979C209.099 25.3367 219.926 23.8687 230.915 23.9959C253.622 24.2602 276.324 24.8669 299.031 25.2584C311.557 25.4737 324.118 25.0088 336.6 25.7966C359.414 27.2304 369.11 36.2046 372.225 58.601C373.297 66.2981 372.993 74.2154 373.013 82.0349C373.091 113.332 373.042 144.634 373.042 175.932C372.763 175.936 372.479 175.936 372.19 175.936ZM246.884 250.407C280.589 249.316 307.042 235.61 323.794 205.536C332.658 189.633 333.666 173.069 327.325 155.869C317.419 128.976 298.614 112.603 271.3 103.854C239.039 93.5193 212.997 102.136 190.814 126.006C182.244 135.225 175.83 145.965 171.197 157.709C160.189 185.596 167.04 212.504 190.315 231.289C206.739 244.54 225.651 250.877 246.884 250.407Z" fill="#E7E1EE"/>
<path fill-rule="evenodd" clip-rule="evenodd" d="M514.46 1024.61C500.377 1024.46 486.274 1023.84 472.21 1024.32C463.988 1024.61 457.343 1023.16 450.8 1017.6C426.551 996.996 397.532 988.653 366.344 986.847C325.391 984.474 284.937 988.814 245.268 998.664C181.99 1014.37 129.04 1047.84 84.2428 1094.8C79.6103 1099.65 76.6428 1106.69 68.9595 1108.29C68.6608 1106.58 67.8577 1104.92 68.2152 1103.57C81.5593 1052.83 104.291 1007.07 140.317 968.414C180.648 925.133 230.596 902.066 289.467 898.45C333.216 895.759 376.999 893.714 420.773 891.448C428.96 891.022 430.929 892.314 430.772 900.163C430.557 910.502 432.506 920.494 434.949 930.286C440.874 954.082 455.482 972.113 474.722 986.7C491.611 999.506 510.322 1009.38 528.602 1019.93C525.375 1025.98 519.044 1022.66 514.46 1024.61Z" fill="#E7E1EE"/>
<path fill-rule="evenodd" clip-rule="evenodd" d="M1163.98 1021.49C1170.27 1017.2 1176.58 1012.92 1182.87 1008.62C1198.37 998.008 1213.66 987.131 1227.03 973.811C1234.25 966.608 1241.3 959.225 1246.28 950.275C1254.07 936.285 1258.98 921.703 1254.09 905.399C1253.22 902.492 1253.25 899.311 1252.92 896.694C1256.65 893.185 1260.61 893.855 1264.44 894.11C1303.46 896.728 1342.48 899.365 1381.49 902.037C1449.57 906.705 1503.87 936.706 1544.96 990.952C1570.91 1025.2 1592.3 1072.93 1599.16 1112.66C1590.94 1109.76 1587.42 1102.6 1582.45 1097.36C1535.49 1047.74 1479.22 1014.3 1412.39 999.139C1381.81 992.2 1350.9 987.581 1319.45 987.879C1299.82 988.065 1280.48 990.85 1261.64 996.545C1247.31 1000.89 1233.2 1006.59 1222.32 1016.79C1212.68 1025.83 1202.76 1027.88 1190.38 1026.1C1182.04 1024.91 1173.4 1025.87 1164.9 1025.87C1164.58 1024.42 1164.28 1022.95 1163.98 1021.49Z" fill="#E7E1EE"/>
<path fill-rule="evenodd" clip-rule="evenodd" d="M346.364 667.802C349.968 673.561 352.647 678.278 355.732 682.707C367.695 699.877 384.217 709.262 405.137 709.967C420.66 710.491 436.217 710.07 451.505 710.07C456.912 723.003 456.872 735.603 459.159 747.748C465.814 783.121 473.742 818.127 489.251 850.956C492.693 858.233 491.097 860.63 482.758 861.203C432.021 864.692 381.274 868.034 330.528 871.396C328.192 871.552 325.826 871.567 323.491 871.405C317.086 870.96 313.57 867.838 312.908 861.183C312.291 854.974 312.238 848.691 312.203 842.442C312.012 808.816 311.812 775.189 311.812 741.563C311.812 729.858 311.694 718.139 315.009 706.654C320.425 687.889 325.283 681.371 346.364 667.802Z" fill="#E7E1EE"/>
<path fill-rule="evenodd" clip-rule="evenodd" d="M1306.63 664.215C1331.76 685.427 1341.94 713.035 1345.72 742.952C1350.74 782.617 1347.87 822.419 1343.74 862.049C1342.71 871.919 1340.86 873.098 1332.25 872.589C1286.27 869.869 1240.3 867.143 1194.33 864.33C1192.26 864.207 1190.25 863.248 1188.57 862.783C1186.43 856.026 1190.65 851.637 1192.83 846.934C1208.17 813.988 1216 779.231 1218.96 743.177C1220.1 729.188 1221.64 715.227 1223.24 701.276C1224.62 689.2 1224.78 689.21 1237.92 689.376C1240.26 689.405 1242.6 689.64 1244.95 689.665C1275.89 690.007 1283.81 686.841 1306.63 664.215Z" fill="#E7E1EE"/>
<path fill-rule="evenodd" clip-rule="evenodd" d="M446.564 420.247C429.651 416.195 414.206 414.933 398.922 417.654C395.588 410.113 396.831 402.974 396.827 396.011C396.738 310.716 396.768 225.422 396.773 140.127C396.773 136.218 396.675 132.298 396.851 128.393C397.262 119.282 398.687 117.985 408.295 118.162C423.289 118.431 437.887 120.975 451.848 126.554C473.884 135.361 487.605 151.216 491.787 174.772C496.625 202.013 494.691 229.351 492.267 256.631C491.871 261.099 489.515 265.556 487.405 269.681C464.605 314.176 452.294 361.518 448.484 411.219C448.318 413.504 447.544 415.745 446.564 420.247Z" fill="#E7E1EE"/>
<path fill-rule="evenodd" clip-rule="evenodd" d="M1055.05 1071.67C1052.52 1079.82 1046.2 1083.81 1038.94 1087.3C1032.03 1090.63 1025.7 1097.79 1018.91 1098.06C1012.06 1098.33 1004.71 1092.62 998.044 1088.72C993.651 1086.15 987.134 1086.15 985.464 1079.79C985.743 1079.05 985.797 1078.21 986.242 1077.86C986.81 1077.41 987.677 1077.27 988.436 1077.15C1010.63 1073.69 1032.83 1070.24 1055.03 1066.8C1055.04 1068.42 1055.04 1070.05 1055.05 1071.67Z" fill="#E7E1EE"/>
<path fill-rule="evenodd" clip-rule="evenodd" d="M603.927 1052.6C623.069 1058.75 642.206 1064.9 662.278 1071.34C647.666 1083.99 641.251 1086.43 624.175 1086.68C618.632 1086.77 615.253 1085.27 616.526 1078.63C617.511 1073.47 614.734 1069.59 610.557 1066.89C605.327 1063.5 599.916 1060.4 594.578 1057.18C596.39 1052.98 600.465 1053.42 603.927 1052.6Z" fill="#E7EBEF"/>
<path fill-rule="evenodd" clip-rule="evenodd" d="M603.927 1052.6C600.46 1053.41 596.39 1052.98 594.578 1057.17C590.435 1055.3 586.072 1053.81 582.189 1051.5C562.998 1040.12 542.98 1030.98 520.767 1027.24C518.578 1026.87 516.561 1025.51 514.46 1024.62C519.044 1022.67 525.375 1025.99 528.602 1019.95C553.709 1030.82 578.82 1041.72 603.927 1052.6Z" fill="#C0C2C6"/>
<path fill-rule="evenodd" clip-rule="evenodd" d="M961.866 1249.19C948.732 1256.06 937.082 1262.32 925.3 1268.29C908.528 1276.8 891.982 1285.68 876.645 1296.62C867.688 1303.02 859.222 1310.03 853.105 1319.32C843.238 1334.32 846.984 1350.55 862.919 1359.16C874.867 1365.6 887.976 1367.95 901.585 1365.73C908.538 1364.6 915.57 1363.57 922.308 1361.6C940.319 1356.35 958.1 1357.95 975.543 1363.36C988.97 1367.53 1002 1372.98 1015.2 1377.88C1019.02 1379.3 1022.35 1381.48 1023.25 1385.67C1028.07 1407.99 1040.24 1427.38 1048.84 1446.53C1047.21 1452.7 1043.45 1451.4 1040.69 1451.81C1037.61 1452.27 1034.43 1452.06 1031.31 1452.24C946.793 1457.16 862.125 1454 777.576 1457.27C737.666 1458.81 697.717 1459.35 657.783 1460.21C649.957 1460.38 642.113 1460.09 634.292 1459.74C612.119 1458.75 611.399 1459.07 621.32 1439.93C627.069 1428.83 631.952 1417.27 636.77 1405.72C639.787 1398.49 644.576 1394.29 652.44 1393.69C653.209 1393.63 653.953 1393.29 654.707 1393.09C670.51 1389.07 684.055 1389.22 696.659 1403.4C708.466 1416.69 722.652 1428.28 738.097 1437.83C751.171 1445.91 765.04 1450.17 780.533 1448.21C797.981 1446.01 809.023 1435.61 811.443 1418.11C814.709 1394.43 808.059 1373.13 794.44 1353.9C784.882 1340.4 773.271 1328.7 760.167 1318.64C744.027 1306.24 727.544 1294.28 711.218 1282.13C697.379 1271.82 684.006 1260.99 672.449 1248.08C665.593 1240.42 659.795 1232.05 656.647 1222.22C653.547 1212.54 654.996 1203.27 662.768 1196.35C669.148 1190.67 676.141 1185.48 683.477 1181.1C697.58 1172.67 712.138 1165.01 726.471 1156.97C749.923 1143.82 767.787 1126.1 773.927 1098.83C775.147 1093.41 778.623 1091.05 784.128 1091.61C795.821 1092.78 806.962 1094.17 816.751 1102.56C830.462 1114.31 847.097 1121.76 863.002 1130.21C878.197 1138.29 893.304 1146.59 907.96 1155.58C922.122 1164.25 933.953 1175.67 942.733 1189.96C948.027 1198.57 953.693 1206.72 951.714 1218.1C949.868 1228.73 957.595 1237.19 961.866 1249.19Z" fill="#E7E1EE"/>
</svg>
