<svg width="38" height="38" viewBox="0 0 38 38" fill="none" xmlns="http://www.w3.org/2000/svg">
<g clip-path="url(#clip0)">
<path d="M33.6875 -0.0488281H3.69833C1.43976 -0.0488281 -0.391113 1.7728 -0.391113 4.01996V33.8578C-0.391113 36.1049 1.43976 37.9266 3.69833 37.9266H33.6875C35.9461 37.9266 37.777 36.1049 37.777 33.8578V4.01996C37.777 1.7728 35.9461 -0.0488281 33.6875 -0.0488281ZM14.7839 19.4563C7.05754 13.8772 7.13627 13.8631 5.06147 12.2565V10.1231C5.06147 8.99957 5.97691 8.08875 7.10619 8.08875H30.2797C31.409 8.08875 32.3244 8.99957 32.3244 10.1231V12.2565C30.2481 13.8644 30.3279 13.8775 22.602 19.4564C21.7074 20.1053 19.9275 21.6705 18.6929 21.6513C17.4573 21.6698 15.6798 20.1063 14.7839 19.4563ZM32.3244 15.6987V27.7546C32.3244 28.8782 31.409 29.789 30.2797 29.789H7.10619C5.97691 29.789 5.06147 28.8782 5.06147 27.7546V15.6987C6.25065 16.6136 7.90099 17.8378 13.181 21.6505C14.3875 22.527 16.4163 24.3753 18.6927 24.3638C20.9834 24.3752 23.0409 22.4955 24.2066 21.6492C29.4852 17.8377 31.1352 16.6136 32.3244 15.6987Z" fill="white"/>
</g>
<defs>
<clipPath id="clip0">
<rect x="0.205261" y="0.757812" width="36.9753" height="36.3625" rx="7" fill="white"/>
</clipPath>
</defs>
</svg>

