<svg width="37" height="38" viewBox="0 0 37 38" fill="none" xmlns="http://www.w3.org/2000/svg">
<path d="M32.6923 0.65625H4.49466C3.47487 0.65625 2.49685 1.06902 1.77575 1.80374C1.05465 2.53847 0.649536 3.53498 0.649536 4.57404L0.649536 33.3045C0.649536 34.3436 1.05465 35.3401 1.77575 36.0748C2.49685 36.8095 3.47487 37.2223 4.49466 37.2223H15.4893V24.7907H10.4426V18.9393H15.4893V14.4795C15.4893 9.4068 18.4533 6.60476 22.9929 6.60476C25.167 6.60476 27.4405 6.99981 27.4405 6.99981V11.9787H24.9355C22.4674 11.9787 21.6976 13.5393 21.6976 15.1398V18.9393H27.2073L26.3262 24.7907H21.6976V37.2223H32.6923C33.712 37.2223 34.6901 36.8095 35.4112 36.0748C36.1323 35.3401 36.5374 34.3436 36.5374 33.3045V4.57404C36.5374 3.53498 36.1323 2.53847 35.4112 1.80374C34.6901 1.06902 33.712 0.65625 32.6923 0.65625Z" fill="white"/>
</svg>

