<svg width="37" height="38" viewBox="0 0 37 38" fill="none" xmlns="http://www.w3.org/2000/svg">
<g clip-path="url(#clip0)">
<path d="M-2.37916 -0.415039V40.6394H39.3672V-0.415039H-2.37916ZM32.3038 9.30791L30.0674 11.4156C29.8717 11.5622 29.7786 11.8005 29.8158 12.0296V27.5442C29.7786 27.7824 29.8717 28.0207 30.0674 28.1581L32.2572 30.2658V30.7332H21.2616V30.2842L23.5259 28.1215C23.7496 27.9016 23.7496 27.8374 23.7496 27.5075V14.9621L17.4503 30.6874H16.6024L9.26881 14.9621V25.5006C9.20358 25.9405 9.36199 26.3895 9.67882 26.7102L12.6234 30.22V30.6874H4.25552V30.22L7.20013 26.7102C7.51696 26.3895 7.65673 25.9405 7.58218 25.5006V13.3126C7.61946 12.9735 7.489 12.6436 7.22809 12.4145L4.60962 9.30791V8.84055H12.7446L19.0251 22.4032L24.5509 8.84971H32.3038V9.30791Z" fill="white"/>
</g>
<defs>
<clipPath id="clip0">
<rect x="0.00634766" y="0.757812" width="36.9753" height="36.3625" rx="7" fill="white"/>
</clipPath>
</defs>
</svg>

