<svg width="66" height="47" viewBox="0 0 66 47" fill="none" xmlns="http://www.w3.org/2000/svg">
<g clip-path="url(#clip0)">
<path d="M32.2901 12.1061L19.8707 0H4.61267L10.6449 12.1061" fill="white"/>
<path d="M10.6452 34.8938H32.2903L19.1613 46.9999L3.5484 46.6438L10.6452 34.8938Z" fill="white"/>
<path d="M10.6449 12.1062L10.29 34.8941H49.6771L50.032 23.5001V12.1062" fill="white"/>
<path d="M65.9999 23.4999C65.9999 18.8711 59.9676 15.3105 56.7741 13.8863C54.9999 13.1742 49.3225 11.0378 45.7741 13.5302C40.4515 17.4469 40.8063 29.553 45.7741 33.4696C52.1612 38.4545 65.645 30.2651 65.9999 23.4999Z" fill="white"/>
<path d="M11.3546 12.1062C4.25778 15.3107 -0.355124 21.0077 -0.00028527 24.2123C0.354553 27.4168 5.3223 29.9092 11.7094 29.1971" fill="white"/>
<path d="M10.645 34.538C3.90307 31.6895 -0.354996 26.3486 -0.000157714 23.5001C0.354681 20.6516 5.32242 18.5153 11.3547 19.2274" fill="white"/>
<path d="M26.9676 11.7497L19.1612 4.27246H9.58051L13.4837 11.7497" fill="#0C0745"/>
<path d="M14.1933 34.5378H27.6772L19.5159 42.0151H9.93524L14.1933 34.5378Z" fill="#0C0745"/>
<path d="M48.9675 32.0454C54.2901 32.4015 61.0321 27.7727 61.0321 23.856C61.0321 20.6515 56.4191 18.1591 54.2901 17.0909C53.2256 16.7348 51.4514 16.0227 49.3224 16.0227L48.9675 23.856V32.0454Z" fill="#0C0745"/>
<path d="M14.5484 15.3105L14.1935 30.9772L45.4193 31.3333V23.4999V15.6666" fill="#0C0745"/>
</g>
<defs>
<clipPath id="clip0">
<rect width="66" height="47" fill="white"/>
</clipPath>
</defs>
</svg>
