<svg width="44" height="42" viewBox="0 0 44 42" fill="none" xmlns="http://www.w3.org/2000/svg">
<circle cx="20.4999" cy="21.438" r="18.5" stroke="white" stroke-width="2"/>
<g clip-path="url(#clip0)">
<path d="M18.2103 15.6284L8.93723 13.8005L2.07465 18.3652L8.47503 22.1039" fill="white"/>
<path d="M15.4158 32.5385L25.1511 26.0629L22.9334 35.5341L15.8028 40.042L15.4158 32.5385Z" fill="white"/>
<path d="M8.47502 22.1038L15.2562 32.6446L32.9712 20.8611L29.6604 15.5377L26.1901 10.3204" fill="white"/>
<path d="M36.8422 10.7609C35.4324 8.6414 31.6348 8.81566 29.7646 9.11891C28.7497 9.32362 25.5455 10.0439 24.7087 12.2467C23.5077 15.6325 27.3546 21.0698 30.7819 21.377C35.1729 21.7488 38.7431 13.9649 36.8422 10.7609Z" fill="white"/>
<path d="M8.79417 21.8917C6.57831 25.4822 6.23876 29.4709 7.3744 30.8321C8.51004 32.1933 11.5035 31.8484 14.1593 29.6115" fill="white"/>
<path d="M15.3073 32.3758C11.4074 33.0884 7.86556 31.9167 7.15756 30.5062C6.44956 29.0957 8.0332 26.6313 10.9632 25.1527" fill="white"/>
<path d="M15.7079 17.0576L9.91941 15.9692L5.61035 18.8354L9.64333 21.0916" fill="#0C0745"/>
<path d="M16.9032 31.314L22.9678 27.28L21.5746 33.1455L17.2655 36.0117L16.9032 31.314Z" fill="#0C0745"/>
<path d="M31.7844 19.7694C34.2868 18.3401 35.9092 14.2036 34.7163 12.4102C33.7402 10.9428 30.9064 11.1816 29.6234 11.3294C29.0362 11.4848 28.0213 11.6895 27.0638 12.3265L29.2901 16.0195L31.7844 19.7694Z" fill="#0C0745"/>
<path d="M11.2067 22.4036L15.8188 29.6836L29.9716 20.5048L27.5857 16.9179L25.1999 13.331" fill="#0C0745"/>
</g>
<defs>
<clipPath id="clip0">
<rect y="19.7451" width="35.6518" height="25.8476" transform="rotate(-33.6305 0 19.7451)" fill="white"/>
</clipPath>
</defs>
</svg>
