<svg width="314" height="142" viewBox="0 0 314 142" fill="none" xmlns="http://www.w3.org/2000/svg">
<path d="M235.547 85.2817C236.547 85.2249 237.047 85.1965 237.347 85.4378C237.475 85.5407 237.575 85.6733 237.64 85.8243C237.791 86.1782 237.627 86.6523 237.301 87.6004L232.625 101.193C232.466 101.654 232.387 101.885 232.229 102.046C232.159 102.117 232.08 102.177 231.993 102.224C231.794 102.332 231.551 102.345 231.064 102.371L214.865 103.242C214.853 103.243 214.847 103.243 214.843 103.243C214.84 103.243 214.839 103.244 214.837 103.244C214.832 103.244 214.832 103.244 214.832 103.244C214.281 103.287 183.432 105.521 190.912 67.1926C197.224 34.8444 219.847 32.9443 237.063 32.0236C253.628 31.1379 254.097 30.979 254.109 30.9683L248.652 46.3972C248.491 46.8529 248.411 47.0807 248.252 47.24C248.183 47.3098 248.104 47.369 248.018 47.4157C247.82 47.5223 247.579 47.5353 247.096 47.5612L230.896 48.4321C230.882 48.4329 230.875 48.4333 230.865 48.4339C230.862 48.4342 230.856 48.4347 230.852 48.435C230.843 48.4358 230.841 48.436 230.836 48.4365C230.104 48.5134 213.494 50.4338 209.92 66.7819C207.389 78.3592 210.573 86.5416 220.748 86.0679C225.366 85.8529 231.946 85.4863 235.547 85.2817Z" fill="white"/>
<path d="M31.0573 42.5698C19.658 43.7987 12.6945 52.1163 9.37484 63.6315C6.05516 75.1466 12.3632 85.7891 24.9381 85.3517C29.3687 85.1454 34.4328 86.0926 33.9707 90.8355C33.3522 97.184 19.0593 97.2708 18.1083 97.2695C18.0845 97.2695 18.0726 97.2695 18.0628 97.2697C18.0578 97.2698 18.0547 97.2698 18.0497 97.27C18.0399 97.2703 18.0289 97.2709 18.007 97.272C17.531 97.2963 13.7998 97.4874 8.05191 97.7953C7.59869 97.8195 7.37208 97.8317 7.18311 97.928C7.10022 97.9703 7.0236 98.024 6.95555 98.0874C6.80037 98.232 6.71166 98.4405 6.53422 98.8573L0.661964 112.652C0.242003 113.639 0.0320229 114.132 0.172631 114.507C0.232395 114.666 0.331804 114.808 0.461455 114.918C0.766483 115.177 1.30172 115.146 2.37221 115.085L18.6327 114.154C30.032 112.925 45.4319 108.242 49.7593 93.2313C56.2368 70.7623 37.046 71.5301 35.8984 71.5957C35.8825 71.5966 35.8746 71.5971 35.8629 71.598C35.8576 71.5984 35.8527 71.5989 35.8474 71.5994C35.8358 71.6005 35.8222 71.6021 35.795 71.6054C35.0494 71.6948 26.2314 72.5834 28.1592 64.3039C29.4298 58.8464 35.9801 59.0289 36.9447 59.086C37.0091 59.0898 37.0413 59.0917 37.0617 59.0921C37.0735 59.0923 37.0773 59.0923 37.089 59.0922C37.1095 59.092 37.1352 59.0908 37.1866 59.0882L42.809 58.8062C42.8093 58.8062 42.8095 58.8062 42.8096 58.8062C42.8097 58.8062 42.8097 58.8062 42.8098 58.8062C42.81 58.8061 42.8096 58.8062 42.8097 58.8062C42.8236 58.8055 46.6744 58.6093 52.8385 58.2791C53.2831 58.2553 53.5054 58.2433 53.6918 58.1499C53.7736 58.1089 53.8494 58.0568 53.917 57.9952C54.0712 57.8548 54.162 57.652 54.3434 57.2465L60.5019 43.4868C60.9471 42.4919 61.1698 41.9945 61.0325 41.6146C60.9742 41.4533 60.8753 41.3097 60.7455 41.1976C60.4397 40.9337 59.8956 40.964 58.8073 41.0246L41.1561 42.0074L31.0573 42.5698Z" fill="white"/>
<path d="M265.425 31.0398L240.645 102.688L288.412 100.028L293.568 85.7777C293.911 84.8296 294.082 84.3556 293.935 83.9982C293.873 83.8459 293.773 83.7115 293.646 83.6068C293.348 83.3612 292.844 83.3856 291.837 83.4345L269.339 84.5265C268.329 84.5755 267.824 84.6 267.526 84.3536C267.399 84.2486 267.299 84.1138 267.237 83.9611C267.09 83.6029 267.264 83.128 267.611 82.1781L270.062 75.4685C270.232 75.0026 270.317 74.7696 270.482 74.6099C270.554 74.5401 270.636 74.4814 270.726 74.4361C270.93 74.3324 271.178 74.328 271.674 74.3192L283.648 74.1066C284.15 74.0977 284.4 74.0933 284.607 73.9878C284.697 73.9417 284.779 73.8821 284.852 73.8112C285.017 73.649 285.1 73.4126 285.267 72.9398L289.866 59.9227C290.192 59.0001 290.355 58.5389 290.212 58.1872C290.151 58.0371 290.055 57.9041 289.931 57.7996C289.641 57.5547 289.152 57.5666 288.174 57.5903L278.213 57.8316C277.201 57.8561 276.695 57.8684 276.403 57.6146C276.278 57.5064 276.182 57.3691 276.123 57.2149C275.986 56.8529 276.171 56.3821 276.542 55.4405L279.082 48.996C279.251 48.5679 279.336 48.3538 279.49 48.2039C279.557 48.1381 279.634 48.0822 279.717 48.0379C279.907 47.9368 280.136 47.9217 280.595 47.8915L305.437 46.2546C305.899 46.2241 306.13 46.2089 306.32 46.107C306.404 46.0623 306.481 46.006 306.548 45.9397C306.703 45.7885 306.786 45.5728 306.954 45.1414L313.436 28.4368L265.425 31.0398Z" fill="white"/>
<path fill-rule="evenodd" clip-rule="evenodd" d="M52.5361 109.479C52.1999 110.428 52.0318 110.903 52.1808 111.259C52.2444 111.411 52.3444 111.545 52.4721 111.649C52.7715 111.892 53.2742 111.865 54.2796 111.811L67.9084 111.078C68.3861 111.053 68.625 111.04 68.8211 110.935C68.907 110.889 68.9857 110.831 69.0548 110.762C69.2124 110.605 69.2944 110.38 69.4584 109.931L78.3333 85.6095C78.496 85.1636 78.5774 84.9407 78.7325 84.7848C78.8009 84.7161 78.8777 84.6585 78.9627 84.6121C79.1559 84.5068 79.4 84.4907 79.8883 84.4584C106.583 82.6933 109.893 77.281 114.226 67.1815L118.278 53.949C122.54 42.3415 112.221 38.6994 94.3615 39.5961C85.7688 40.0276 81.4162 40.2604 79.2126 40.3859C78.0083 40.4545 77.4062 40.4888 77.2096 40.5954C77.0752 40.6683 77.0833 40.6622 76.9757 40.7708C76.8184 40.9297 76.6131 41.5092 76.2025 42.6682L52.5361 109.479ZM98.536 54.6004C98.5311 54.6005 98.5286 54.6006 98.5189 54.6009C98.516 54.6011 98.5087 54.6014 98.5059 54.6015C98.4961 54.602 98.4905 54.6024 98.4793 54.6032L90.5443 55.166C90.0754 55.1993 89.8409 55.2159 89.6489 55.3213C89.5648 55.3675 89.4877 55.4256 89.4201 55.4938C89.2659 55.6493 89.1853 55.8701 89.0241 56.3117L85.163 66.8929C84.8106 67.8586 84.6344 68.3415 84.7849 68.7022C84.8489 68.8558 84.9503 68.991 85.0798 69.0955C85.3839 69.3409 85.8969 69.3069 86.9227 69.2389L94.316 68.7492C94.3345 68.748 94.3437 68.7474 94.3628 68.7454C94.3678 68.7449 94.3831 68.743 94.3881 68.7424C94.4071 68.7399 94.4107 68.7393 94.4178 68.7381C94.9812 68.6424 100.248 67.5287 102.683 59.0208C103.95 54.5892 98.9481 54.5927 98.536 54.6004Z" fill="white"/>
<path d="M135.481 67.0876L110.626 80.6144L104.688 100.974L127.178 95.7642" fill="white"/>
<path d="M165.498 101.497L173.8 72.8206L189.333 92.8995L183.417 113.605L165.498 101.497Z" fill="white"/>
<path d="M127.084 96.0309L165.403 101.764L180.554 49.5419L161.448 46.6285L142.23 43.7225" fill="white"/>
<path d="M166.995 25.4262C159.421 24.2738 150.831 31.5233 147.397 35.4822C145.31 37.7899 139.589 44.4169 142.873 50.1055C147.424 58.0552 168.074 60.6067 176.532 54.7551C187.239 47.3666 178.522 27.1007 166.995 25.4262Z" fill="white"/>
<path d="M127.35 94.9717C130.266 105.286 138.015 112.505 143.855 112.816C149.473 113.142 155.122 107.127 156.683 98.516" fill="white"/>
<path d="M165.369 101.245C157.521 109.575 147.395 113.886 142.384 112.565C137.601 111.316 136.033 104.473 139.2 96.4511" fill="white"/>
<path d="M133.032 74.1077L117.36 82.6035L113.614 95.4392L127.726 92.1685" fill="white"/>
<path d="M166.523 96.6543L171.717 78.6008L181.501 91.2428L177.655 104.259L166.523 96.6543Z" fill="white"/>
<path d="M174.971 49.7348C177.214 42.9888 171.941 32.5685 165.381 31.5232C160.063 30.6567 154.04 36.088 151.659 39.0228C150.724 40.126 148.865 42.5055 148.15 45.2441L161.622 47.5722L174.971 49.7348Z" fill="white"/>
<path d="M134.518 91.6358L160.854 95.5506L172.714 54.5716L159.599 52.5674L146.373 50.5704" fill="white"/>
</svg>

