<svg width="438" height="197" viewBox="0 0 438 197" fill="none" xmlns="http://www.w3.org/2000/svg">
<path d="M313.731 117.112C318.728 116.612 321.227 116.363 322.775 117.501C323.436 117.987 323.965 118.625 324.32 119.365C325.151 121.097 324.444 123.502 323.028 128.311L320.494 136.924C319.806 139.263 319.462 140.432 318.707 141.274C318.377 141.642 317.994 141.96 317.57 142.216C316.603 142.8 315.39 142.92 312.964 143.161L292.299 145.211C292.268 145.214 292.253 145.216 292.242 145.217C292.23 145.218 292.24 145.217 292.228 145.218C292.218 145.219 292.163 145.226 292.052 145.238C289.428 145.528 244.277 149.699 252.924 91.5206C260.373 41.4044 294.982 36.916 321.357 34.307C346.732 31.7969 347.442 31.5203 347.459 31.503L341.326 51.7059C340.624 54.0184 340.273 55.1746 339.519 56.0059C339.189 56.3701 338.808 56.6836 338.386 56.9363C337.424 57.5134 336.222 57.6327 333.817 57.8713L313.146 59.922C313.081 59.9285 313.048 59.9317 312.99 59.9388C312.973 59.9409 312.929 59.9466 312.913 59.9489C312.855 59.957 312.841 59.9592 312.813 59.9637C310.63 60.3188 286.338 64.813 282.087 89.5703C279.004 107.526 284.461 119.871 300.053 118.437C304.102 118.064 309.133 117.571 313.731 117.112Z" fill="white"/>
<path d="M249.28 139.919C249.984 143.653 250.335 145.52 249.657 146.976C249.365 147.605 248.945 148.166 248.424 148.623C247.217 149.684 245.326 149.871 241.545 150.246L232.355 151.158C229.133 151.478 227.522 151.637 226.242 151.008C225.686 150.735 225.186 150.361 224.767 149.905C223.802 148.855 223.5 147.265 222.895 144.084L215.16 103.368C212.966 91.8205 211.869 86.0467 209.362 85.0173C208.332 84.5941 207.189 84.5273 206.116 84.8273C203.506 85.5571 201.743 91.1634 198.217 102.376L183.015 150.713C182.297 152.995 181.938 154.136 181.186 154.955C180.857 155.314 180.477 155.623 180.058 155.872C179.102 156.441 177.912 156.559 175.532 156.795L167.674 157.575C162.664 158.072 160.16 158.32 158.609 157.171C157.948 156.68 157.418 156.035 157.066 155.291C156.242 153.546 156.974 151.138 158.439 146.321L186.817 53.0162C187.52 50.7053 187.871 49.5499 188.625 48.7191C188.955 48.3553 189.336 48.042 189.758 47.7894C190.719 47.2128 191.921 47.0935 194.325 46.8551L223.079 44.0025C226.305 43.6824 227.919 43.5224 229.2 44.1529C229.756 44.4266 230.256 44.8014 230.675 45.2581C231.641 46.31 231.941 47.9032 232.541 51.0895L249.28 139.919Z" fill="white"/>
<path d="M41.3274 61.9993C23.9072 64.678 13.7911 77.9349 9.4925 95.8495C5.19394 113.764 15.6196 129.67 34.9001 128.125C41.6897 127.501 49.5322 128.604 49.1517 135.92C48.6577 145.421 27.9853 146.763 25.4226 146.893C25.278 146.901 25.2057 146.904 25.163 146.907C25.1382 146.909 25.1308 146.909 25.106 146.911C25.0633 146.915 25.0113 146.92 24.9072 146.93C23.8778 147.029 19.7908 147.425 13.5888 148.036C11.3362 148.258 10.2099 148.369 9.28719 148.893C8.88267 149.123 8.51159 149.409 8.18592 149.741C7.44308 150.499 7.04698 151.56 6.25479 153.682L2.92885 162.592C1.05402 167.615 0.116607 170.126 0.903554 171.966C1.23804 172.748 1.76651 173.432 2.43898 173.953C4.02107 175.178 6.68761 174.904 12.0207 174.356L27.2164 172.795C44.6366 170.116 67.9604 161.856 73.5638 138.503C81.743 104.416 53.9727 105.957 50.9577 106.222C50.9168 106.226 50.8963 106.227 50.842 106.233C50.8154 106.236 50.7961 106.239 50.7696 106.242C50.7154 106.249 50.619 106.263 50.4262 106.291C48.4345 106.584 36.0945 107.917 38.3855 95.5781C39.8487 87.697 48.6715 86.9986 51.0867 86.9563C51.5329 86.9484 51.756 86.9445 51.8289 86.9411C51.8875 86.9384 51.8674 86.9395 51.9259 86.9357C51.9987 86.9308 52.1031 86.9209 52.312 86.9009L60.4986 86.1184C60.5001 86.1183 60.5008 86.1182 60.5016 86.1182C60.5019 86.1181 60.5022 86.1181 60.5026 86.1181C60.5033 86.118 60.5022 86.1181 60.5027 86.1181C60.5618 86.1124 64.949 85.6895 72.1853 84.9761C74.3953 84.7583 75.5003 84.6493 76.4109 84.1405C76.8103 83.9173 77.1777 83.6399 77.5017 83.3169C78.2405 82.5805 78.648 81.5472 79.463 79.4805L82.9586 70.6167C84.958 65.5468 85.9577 63.0119 85.1861 61.1456C84.8584 60.353 84.3323 59.658 83.6583 59.1275C82.0716 57.8783 79.3605 58.1525 73.9383 58.7009L56.7966 60.4347L41.3274 61.9993Z" fill="white"/>
<path d="M364.39 29.7311L331.308 141.483L404.479 134.082L408.701 120.526C410.2 115.713 410.95 113.306 410.135 111.555C409.787 110.808 409.261 110.159 408.602 109.665C407.057 108.505 404.547 108.741 399.528 109.212L381.624 110.895C378.023 111.233 376.222 111.402 374.99 110.825C373.597 110.173 372.582 108.917 372.237 107.419C371.931 106.093 372.475 104.368 373.561 100.918C374.096 99.2195 374.363 98.3705 374.845 97.7088C375.392 96.9582 376.137 96.3747 376.997 96.0237C377.755 95.7144 378.643 95.6584 380.42 95.5464L391.166 94.8694C393.668 94.7117 394.919 94.6329 395.925 94.0597C396.365 93.8089 396.764 93.4926 397.109 93.1218C397.898 92.2743 398.262 91.0747 398.989 88.6756L401.748 79.5775C402.828 76.0161 403.368 74.2354 403.001 72.8601C402.642 71.5116 401.736 70.3745 400.502 69.7236C399.243 69.0599 397.387 69.1889 393.674 69.447L393.367 69.4683C389.804 69.716 388.022 69.8398 386.816 69.2495C385.412 68.5623 384.411 67.2582 384.109 65.7247C383.849 64.4074 384.429 62.718 385.587 59.3393C386.115 57.7975 386.38 57.0266 386.827 56.4149C387.349 55.7001 388.051 55.1368 388.863 54.7825C389.557 54.4793 390.367 54.3891 391.987 54.2086L423.052 50.7469C425.351 50.4907 426.501 50.3626 427.429 49.8104C427.836 49.5683 428.207 49.2696 428.53 48.9232C429.267 48.1331 429.636 47.0369 430.375 44.8444L437.936 22.4009L364.39 29.7311Z" fill="white"/>
<path fill-rule="evenodd" clip-rule="evenodd" d="M75.0354 154.77C73.5706 159.586 72.8381 161.995 73.6631 163.74C74.0148 164.484 74.5446 165.129 75.2056 165.619C76.7562 166.769 79.261 166.52 84.2706 166.023L92.128 165.244C94.5085 165.008 95.6988 164.89 96.6546 164.321C97.0733 164.072 97.4534 163.763 97.7828 163.404C98.5346 162.585 98.8934 161.444 99.6111 159.162L109.16 128.8C109.87 126.543 110.225 125.415 110.951 124.607C111.275 124.247 111.631 123.95 112.043 123.696C112.968 123.125 114.179 122.973 116.603 122.669C153.843 117.999 158.435 109.507 164.191 94.2199L169.495 73.6171C175.233 55.4953 159.134 50.6184 131.771 53.2353C125.115 53.8718 120.12 54.3551 116.372 54.7222C110.348 55.3119 107.337 55.6068 106.373 56.1833C105.718 56.5759 105.752 56.5473 105.239 57.1133C104.484 57.9446 103.594 60.8707 101.814 66.7228L75.0354 154.77ZM139.326 75.9824C139.32 75.9827 139.317 75.9828 139.252 75.9875C139.237 75.9886 139.179 75.9933 139.165 75.9946C139.1 76.0004 139.078 76.003 139.033 76.0082L130.891 76.9568C128.556 77.2288 127.389 77.3648 126.454 77.9348C126.044 78.1846 125.672 78.4921 125.35 78.8479C124.614 79.6596 124.262 80.7807 123.557 83.0229L122.331 86.9205C120.789 91.824 120.018 94.2757 120.85 96.0432C121.205 96.796 121.742 97.4483 122.413 97.941C123.987 99.098 126.541 98.8125 131.65 98.2415L133.543 98.0299C133.606 98.0228 133.638 98.0192 133.768 97.9977C133.793 97.9936 133.917 97.9709 133.941 97.9659C134.07 97.9398 134.051 97.9448 134.059 97.9428C135.52 97.5666 142.906 95.0685 145.898 82.4887C147.474 75.8599 140.432 75.9311 139.326 75.9824Z" fill="white"/>
</svg>
